<svg width="364" height="57" viewBox="0 0 364 57" fill="none" xmlns="http://www.w3.org/2000/svg">
<g clip-path="url(#clip0_2550_3561)">
<path d="M8.92013 37.6392V55.433H0.732422V15.5061H8.92013V33.1786L27.7692 15.5061H38.5047L17.3799 35.021L38.3316 55.433H27.2992L8.92013 37.6392ZM41.1515 22.803H48.6961V55.433H41.1515V22.803ZM41.102 13.6394H48.8197V20.3545H41.102V13.6394ZM54.8307 22.803H73.1108C76.8212 22.803 79.6906 23.7969 81.6943 25.809C83.7474 27.7726 84.7616 30.5362 84.7616 34.0998V55.4088H77.217V35.5059C77.217 31.7241 75.3123 29.809 71.5276 29.809H62.3505V55.3845H54.8059V22.803H54.8307ZM105.688 56.1118C102.522 56.1118 99.6281 55.3845 97.0555 53.9057C94.4582 52.427 92.4051 50.3906 90.8961 47.8209C89.4367 45.2028 88.6946 42.2937 88.6946 39.0695C88.6946 35.8453 89.4367 32.9362 90.8961 30.3665C92.3556 27.7969 94.384 25.7848 96.9318 24.3302C99.5291 22.8514 102.374 22.1242 105.515 22.1242H105.688C108.83 22.1242 111.65 22.8514 114.148 24.2817C116.696 25.712 118.7 27.6999 120.134 30.1968C121.569 32.6938 122.286 35.4816 122.286 38.5604V40.718H96.4123C96.635 43.1422 97.5997 45.1543 99.3065 46.7543C101.013 48.3543 103.165 49.1543 105.812 49.1543H105.936C107.989 49.1543 109.696 48.6694 111.106 47.6755C112.491 46.6816 113.456 45.3725 114 43.6998H121.891C121.149 47.3846 119.368 50.3664 116.548 52.6936C113.728 54.9966 110.166 56.1603 105.862 56.1603H105.688V56.1118ZM113.975 34.1726C113.555 32.6453 112.615 31.4332 111.18 30.4877C109.745 29.5423 107.915 29.0575 105.664 29.0575H105.491C103.413 29.0575 101.607 29.5423 100.098 30.4877C98.6386 31.4332 97.6244 32.6695 97.0802 34.1726H113.95H113.975ZM140.938 55.433C138.34 55.433 136.312 54.7785 134.853 53.4451C133.418 52.0876 132.7 50.0997 132.7 47.53V29.615H122.559V22.803H132.7V13.6394H140.245V22.803H151.797V29.615H140.245V45.0816C140.245 46.221 140.517 47.0937 141.061 47.6997C141.63 48.2573 142.521 48.5482 143.733 48.5482H151.624V55.433H140.938ZM156.348 22.803H163.893V55.433H156.348V22.803ZM156.299 13.6394H164.017V20.3545H156.299V13.6394ZM179.6 39.1665L166.886 22.803H176.236L185.463 34.8029L194.813 22.803H203.916L191.276 38.8998L204.04 55.433H194.69L185.463 43.3846L176.113 55.433H167.01L179.6 39.1665ZM207.404 15.5061H230.31C234.515 15.5061 237.755 16.6697 240.006 18.9727C242.257 21.2515 243.371 24.4272 243.371 28.5241C243.371 32.6211 242.257 35.7483 240.006 38.0271C237.755 40.3058 234.54 41.4452 230.31 41.4452H215.567V55.433H207.379V15.5061H207.404ZM229.221 34.1483C231.225 34.1483 232.734 33.6635 233.699 32.718C234.713 31.7726 235.208 30.3423 235.208 28.4514C235.208 24.6696 233.204 22.7545 229.221 22.7545H215.592V34.1241H229.221V34.1483ZM265.856 34.1968C265.856 31.118 264.297 29.5908 261.156 29.5908H254.725V55.4088H247.18V22.803H262.838C266.202 22.803 268.799 23.6999 270.605 25.4696C272.46 27.2393 273.4 29.7605 273.4 32.9847V38.1483H265.856V34.2211V34.1968ZM292.522 56.0875C289.306 56.0875 286.387 55.3603 283.765 53.8815C281.168 52.3542 279.114 50.3179 277.606 47.7482C276.097 45.1301 275.355 42.2452 275.355 39.0453C275.355 35.8453 276.097 33.0332 277.606 30.4635C279.114 27.8453 281.168 25.809 283.765 24.3302C286.387 22.8514 289.306 22.1242 292.522 22.1242H292.695C295.91 22.1242 298.805 22.8514 301.402 24.3302C304.024 25.809 306.077 27.8453 307.561 30.4635C309.07 33.0332 309.812 35.8938 309.812 39.0453C309.812 42.1967 309.045 45.1301 307.561 47.7482C306.102 50.3179 304.049 52.3785 301.402 53.8815C298.805 55.3603 295.91 56.0875 292.695 56.0875H292.522ZM282.949 39.021C282.949 41.9786 283.864 44.3785 285.67 46.2452C287.475 48.0634 289.801 48.9846 292.62 48.9846H292.67C294.476 48.9846 296.108 48.5724 297.543 47.724C298.978 46.8997 300.091 45.7361 300.907 44.2573C301.748 42.7301 302.193 41.0089 302.193 39.021C302.193 37.0331 301.773 35.3847 300.907 33.9059C300.091 32.3786 298.978 31.2393 297.543 30.4393C296.108 29.615 294.476 29.1787 292.67 29.1787H292.62C289.801 29.1787 287.475 30.0999 285.67 31.918C283.864 33.7362 282.949 36.1119 282.949 39.021Z" fill="#EE3124"/>
</g>
<path d="M363.342 55.7202C363.158 55.6467 362.965 55.6806 362.777 55.68C352.687 55.6478 342.597 55.5762 332.507 55.6046C327.703 55.6179 323.888 52.1965 323.056 47.9483C322.373 44.4577 323.345 41.4563 325.839 38.9314C329.787 34.9361 333.724 30.9318 337.664 26.93C340.438 24.1135 343.209 21.2953 345.982 18.4779C350.189 14.2041 354.396 9.92946 358.603 5.65563C360.238 3.99495 361.873 2.33427 363.508 0.673587L363.462 15.828C363.253 15.7553 363.206 15.9616 363.114 16.0539C358.88 20.2826 354.653 24.5187 350.423 28.7515C347.725 31.4511 345.022 34.1458 342.324 36.8446C340.203 38.965 338.089 41.0921 335.968 43.2109C335.56 43.6185 335.412 44.0761 335.63 44.6216C335.841 45.1441 336.259 45.256 336.786 45.2568C345.485 45.2733 354.185 45.3029 362.884 45.3285C363.048 45.329 363.21 45.3213 363.374 45.3168L363.342 55.7202Z" fill="#EE3124"/>
<defs>
<clipPath id="clip0_2550_3561">
<rect width="309.104" height="42.4724" fill="white" transform="translate(0.732422 13.6392)"/>
</clipPath>
</defs>
</svg>
