<?xml version="1.0" encoding="UTF-8"?>
<svg version="1.1" xmlns="http://www.w3.org/2000/svg" width="500" height="500">
<path d="M0 0 C0 0.66 0 1.32 0 2 C0.556875 2.061875 1.11375 2.12375 1.6875 2.1875 C5.02848796 3.36136063 6.6191831 5.39243863 9 8 C9.51046875 8.54140625 10.0209375 9.0828125 10.546875 9.640625 C14.07432186 13.51732403 16.33674974 17.01024923 18 22 C17.67 22.66 17.34 23.32 17 24 C17.66 24.33 18.32 24.66 19 25 C18.505 25.99 18.505 25.99 18 27 C18.66 27 19.32 27 20 27 C21.93103448 43.51724138 21.93103448 43.51724138 20 51 C19.34 51 18.68 51 18 51 C18.33 51.99 18.66 52.98 19 54 C16.57187408 60.78504542 13.38818351 66.46025757 7.57421875 70.7734375 C5.77941952 72.04997224 5.77941952 72.04997224 4.1875 74.5625 C-0.65271247 79.95587961 -8.09333197 82.34239967 -15 84 C-15.89912109 84.26683594 -15.89912109 84.26683594 -16.81640625 84.5390625 C-19.59920561 85.12648705 -22.21993239 85.13204478 -25.0625 85.125 C-26.10535156 85.12757813 -27.14820313 85.13015625 -28.22265625 85.1328125 C-31 85 -31 85 -34 84 C-36.30976834 83.51004914 -38.62408441 83.05046626 -40.94140625 82.59765625 C-43 82 -43 82 -45 80 C-45.14517744 77.0906442 -45.18630796 74.280054 -45.125 71.375 C-45.11597656 70.57320313 -45.10695313 69.77140625 -45.09765625 68.9453125 C-45.07406223 66.96341477 -45.03819065 64.98167019 -45 63 C-43.14453125 62.41796875 -43.14453125 62.41796875 -41 62 C-39.30963442 62.95939668 -37.64605826 63.96642853 -36 65 C-29.29970063 67.49618996 -21.83276917 68.49894831 -15.125 65.5625 C-14.09375 65.046875 -13.0625 64.53125 -12 64 C-10.67723944 63.62691369 -9.34767923 63.26953585 -8 63 C-8 62.34 -8 61.68 -8 61 C-6.9523451 60.10243049 -5.8603372 59.25625705 -4.75 58.4375 C0.49557758 54.0732644 2.74182576 48.51952165 3.875 41.875 C4.00836735 37.74061224 3.39011067 34.87767713 2 31 C1.71125 30.154375 1.4225 29.30875 1.125 28.4375 C-2.47180876 20.64441436 -8.17592587 15.45563274 -16 12 C-16.66 12 -17.32 12 -18 12 C-18 11.34 -18 10.68 -18 10 C-18.99 10.33 -19.98 10.66 -21 11 C-22.9375 11.1328125 -22.9375 11.1328125 -25 11.125 C-26.0209375 11.12886719 -26.0209375 11.12886719 -27.0625 11.1328125 C-29 11 -29 11 -32 10 C-32 10.66 -32 11.32 -32 12 C-32.5465625 12.09152344 -33.093125 12.18304688 -33.65625 12.27734375 C-39.3248381 14.02515841 -45.10618036 18.38539825 -48.5703125 23.16796875 C-50.85213479 27.67245498 -52.09138395 32.0208936 -52.20532227 37.03417969 C-52.22526749 37.81468689 -52.24521271 38.59519409 -52.26576233 39.39935303 C-52.29083107 40.6480014 -52.29083107 40.6480014 -52.31640625 41.921875 C-52.33718735 42.78186096 -52.35796844 43.64184692 -52.37937927 44.52789307 C-52.44463739 47.26851598 -52.50364917 50.00923275 -52.5625 52.75 C-52.60570781 54.6106867 -52.64932282 56.47136398 -52.69335938 58.33203125 C-52.80029442 62.88792523 -52.90162851 67.4439134 -53 72 C-57 72 -57 72 -58.78125 70.53125 C-62.66651098 65.93957793 -65.69483498 61.56014341 -68 56 C-68.2990625 55.35933594 -68.598125 54.71867187 -68.90625 54.05859375 C-73.04511118 43.96053892 -72.13179055 31.68581545 -68.2578125 21.67578125 C-62.50303231 9.43346936 -53.02615205 0.00743634 -40.41015625 -5.03515625 C-27.12781679 -9.2285527 -11.6258691 -8.12744243 0 0 Z " fill="#008BD0" transform="translate(152,191)"/>
<path d="M0 0 C1.91015625 1.1015625 1.91015625 1.1015625 4.66015625 3.1015625 C4.66015625 3.7615625 4.66015625 4.4215625 4.66015625 5.1015625 C7.56764123 4.65425712 8.93410864 3.89769095 11.34765625 2.1015625 C17.35218626 -1.52381411 23.89673165 -1.45922779 30.66015625 0.1015625 C36.56533614 2.91355292 40.58663762 7.06070815 43.0670166 13.12554932 C44.09727814 16.55781083 43.93677113 19.85665979 43.76953125 23.40625 C43.74546204 24.17083527 43.72139282 24.93542053 43.69659424 25.72317505 C43.64328429 27.32515735 43.58236747 28.92690313 43.51416016 30.52832031 C43.40958877 32.989921 43.32781201 35.45148369 43.25 37.9140625 C43.19531712 39.47400469 43.13937323 41.0339033 43.08203125 42.59375 C43.05590759 43.33221161 43.02978394 44.07067322 43.00286865 44.83151245 C42.77772651 49.98399224 42.77772651 49.98399224 41.66015625 51.1015625 C39.84765625 51.234375 39.84765625 51.234375 37.66015625 51.2265625 C36.93828125 51.22914063 36.21640625 51.23171875 35.47265625 51.234375 C33.66015625 51.1015625 33.66015625 51.1015625 32.66015625 50.1015625 C32.55017155 47.88085599 32.50420969 45.65693372 32.484375 43.43359375 C32.4611595 42.05141735 32.43704148 40.66925587 32.41210938 39.28710938 C32.37711473 37.10593956 32.34772585 34.9253117 32.33422852 32.74389648 C32.31865673 30.6397884 32.27837539 28.53727528 32.234375 26.43359375 C32.21979248 25.17264893 32.20520996 23.9117041 32.19018555 22.61254883 C31.5678076 18.48983243 30.30087632 16.29781361 27.66015625 13.1015625 C23.88957328 11.84470151 21.52161928 12.27410614 17.66015625 13.1015625 C15.0756034 14.99690125 14.69740119 15.98982767 13.66015625 19.1015625 C13.52008395 21.44560744 13.43461019 23.79305945 13.37890625 26.140625 C13.36049683 26.82208588 13.3420874 27.50354675 13.32312012 28.20565796 C13.24448939 31.11904336 13.17648894 34.03265231 13.10791016 36.94628906 C13.05631102 39.07368851 12.99903479 41.20088175 12.94140625 43.328125 C12.91111328 44.60252441 12.88082031 45.87692383 12.84960938 47.18994141 C12.66015625 50.1015625 12.66015625 50.1015625 11.66015625 51.1015625 C10.14087587 51.17336214 8.61848143 51.18548257 7.09765625 51.1640625 C6.27136719 51.15503906 5.44507813 51.14601563 4.59375 51.13671875 C3.95566406 51.12511719 3.31757813 51.11351562 2.66015625 51.1015625 C2.66015625 50.4415625 2.66015625 49.7815625 2.66015625 49.1015625 C2.00015625 49.1015625 1.34015625 49.1015625 0.66015625 49.1015625 C0.68110352 48.15313477 0.70205078 47.20470703 0.72363281 46.22753906 C0.79189185 42.70139825 0.84199554 39.17596151 0.87988281 35.64941406 C0.89997224 34.12456165 0.92724941 32.59978602 0.96191406 31.07519531 C1.01055421 28.88066652 1.03315021 26.68715781 1.05078125 24.4921875 C1.07172852 23.17250977 1.09267578 21.85283203 1.11425781 20.49316406 C0.9366625 17.06020031 0.9366625 17.06020031 -1.14941406 14.69824219 C-4.23406955 12.4497305 -6.54980764 12.16805436 -10.33984375 12.1015625 C-13.23227002 13.20234531 -13.23227002 13.20234531 -15.33984375 15.1015625 C-16.50184309 18.58756051 -16.51667821 21.4286635 -16.5859375 25.10546875 C-16.61885631 26.4993557 -16.65206827 27.89323576 -16.68554688 29.28710938 C-16.73307748 31.48164431 -16.777559 33.67614743 -16.81665039 35.87084961 C-16.85626841 37.99100677 -16.90781243 40.11061315 -16.9609375 42.23046875 C-16.98599365 43.49963135 -17.0110498 44.76879395 -17.03686523 46.07641602 C-17.33984375 49.1015625 -17.33984375 49.1015625 -19.33984375 51.1015625 C-21.50390625 51.296875 -21.50390625 51.296875 -23.96484375 51.2265625 C-24.78210938 51.20851563 -25.599375 51.19046875 -26.44140625 51.171875 C-27.06789063 51.14867187 -27.694375 51.12546875 -28.33984375 51.1015625 C-29.83447109 48.11230782 -29.54391012 45.03066359 -29.578125 41.75 C-29.58619675 41.01713776 -29.59426849 40.28427551 -29.60258484 39.52920532 C-29.61642764 37.97408411 -29.62714893 36.41893249 -29.63500977 34.86376953 C-29.65212832 32.50623147 -29.69599742 30.1501311 -29.74023438 27.79296875 C-29.83352084 18.88831894 -29.73021553 12.0888708 -23.55859375 5.078125 C-22.99140625 4.63210937 -22.42421875 4.18609375 -21.83984375 3.7265625 C-21.27265625 3.26507813 -20.70546875 2.80359375 -20.12109375 2.328125 C-14.19755038 -1.75080618 -6.82638152 -2.62114816 0 0 Z " fill="#0B3D6A" transform="translate(317.33984375,205.8984375)"/>
<path d="M0 0 C0.99 0.66 1.98 1.32 3 2 C3 2.66 3 3.32 3 4 C3.99 4.33 4.98 4.66 6 5 C6 5.66 6 6.32 6 7 C6.66 7 7.32 7 8 7 C12.43200854 14.57730492 14.25674798 22.32784266 12 31 C7.93720244 39.12559512 2.35436368 44.9794854 -6.3125 48.25 C-13.76640899 49.76604929 -19.20392769 49.4703348 -26 46 C-26.06058594 46.85464844 -26.12117187 47.70929688 -26.18359375 48.58984375 C-26.26738281 49.69457031 -26.35117188 50.79929687 -26.4375 51.9375 C-26.51871094 53.03964844 -26.59992188 54.14179688 -26.68359375 55.27734375 C-27 58 -27 58 -28 59 C-29.83115883 59.09851171 -31.66619933 59.12972629 -33.5 59.125 C-34.5003125 59.12757813 -35.500625 59.13015625 -36.53125 59.1328125 C-39 59 -39 59 -40 58 C-40.12611199 55.30521609 -40.18870608 52.6375565 -40.203125 49.94140625 C-40.20882507 49.12308823 -40.21452515 48.3047702 -40.22039795 47.46165466 C-40.22987002 45.72062478 -40.23639064 43.97957679 -40.24023438 42.23852539 C-40.24984619 39.60464761 -40.28080756 36.97158186 -40.3125 34.33789062 C-40.43956643 14.24213193 -40.43956643 14.24213193 -35.125 7.6875 C-34.073125 6.8521875 -34.073125 6.8521875 -33 6 C-32.21625 5.154375 -31.4325 4.30875 -30.625 3.4375 C-21.84423543 -4.7160671 -10.4284694 -4.84178936 0 0 Z M-24 12 C-24.74493177 14.02989561 -24.74493177 14.02989561 -25 16 C-25.99 16.495 -25.99 16.495 -27 17 C-27.4683265 19.58605332 -27.4683265 19.58605332 -27.625 22.5625 C-27.69976562 23.57441406 -27.77453125 24.58632812 -27.8515625 25.62890625 C-27.90054688 26.41136719 -27.94953125 27.19382813 -28 28 C-27.34 28 -26.68 28 -26 28 C-26 29.32 -26 30.64 -26 32 C-22.81233444 34.37708753 -22.81233444 34.37708753 -19 35 C-18.67 35.66 -18.34 36.32 -18 37 C-14.35526801 37.89093449 -11.57257469 38.23666047 -8 37 C-8 36.34 -8 35.68 -8 35 C-7.4225 34.773125 -6.845 34.54625 -6.25 34.3125 C-1.90859002 31.78001084 -0.276042 28.99050366 1.0625 24.1875 C1.44838431 19.78338561 -0.27594854 17.04443197 -2.67578125 13.46875 C-3.11277344 12.9840625 -3.54976562 12.499375 -4 12 C-4.66 12 -5.32 12 -6 12 C-6.33 11.34 -6.66 10.68 -7 10 C-12.74509378 6.67389308 -18.58239786 8.84357763 -24 12 Z " fill="#0B3E6B" transform="translate(225,208)"/>
<path d="M0 0 C2.90978901 2.53832658 4.86292781 4.79439171 7 8 C2.92447739 12.90336314 -1.30293608 17.28331862 -6.15625 21.41796875 C-10.92924614 25.51344213 -14.97062845 30.19521674 -19 35 C-15.00964962 36.19710511 -12.52552888 36.09081741 -8.8125 34.375 C-5.34054101 32.48360901 -3.78509404 30.57018809 -2 27 C-1.34 27 -0.68 27 0 27 C-0.268125 25.948125 -0.53625 24.89625 -0.8125 23.8125 C-1 20 -1 20 1.25 17.25 C2.1575 16.5075 3.065 15.765 4 15 C4.598125 14.401875 5.19625 13.80375 5.8125 13.1875 C6.4003125 12.5996875 6.4003125 12.5996875 7 12 C10 13 10 13 11.25 15.375 C12.55215877 21.66876737 12.24170021 28.3403103 9 34 C8.34 34 7.68 34 7 34 C6.938125 34.556875 6.87625 35.11375 6.8125 35.6875 C5.04733132 40.71144163 0.83682388 43.30139403 -3.625 45.8125 C-9.96581962 48.78976449 -16.01311144 49.34629715 -22.6953125 47.08984375 C-24.85742314 46.14434396 -26.93582731 45.14166589 -29 44 C-29 43.34 -29 42.68 -29 42 C-29.5775 41.7525 -30.155 41.505 -30.75 41.25 C-35.49645206 38.61308219 -38.05047557 35.02772091 -40 30 C-39.6875 27.125 -39.6875 27.125 -39 25 C-39.66 25 -40.32 25 -41 25 C-40.65085386 15.50322498 -39.31929232 8.84013462 -32.25 2.1875 C-22.64038998 -5.56389814 -10.64019716 -6.6367427 0 0 Z M-25 12 C-27.92218588 15.73213958 -29.08854378 18.76038711 -28.75 23.5 C-28.5025 24.325 -28.255 25.15 -28 26 C-21.96668638 21.01595832 -16.4815829 15.58084697 -11 10 C-11.33 9.34 -11.66 8.68 -12 8 C-17.00543133 7.37432108 -21.0365183 9.04390323 -25 12 Z " fill="#0B3D6B" transform="translate(405,209)"/>
<path d="M0 0 C4.84242368 2.98644248 7.96593096 6.56996889 10.1875 11.8125 C11.1192938 18.00355307 10.98370677 23.41169952 7.625 28.8125 C3.69892655 33.88789237 -0.44536542 36.60850539 -6.875 37.625 C-12.79591241 37.90694821 -17.00730626 37.4163953 -21.8125 33.8125 C-26.44767674 29.16582158 -29.49467067 25.18149094 -30.125 18.5 C-29.70561475 13.55125406 -28.61433241 8.9233538 -25.33203125 5.078125 C-23.8125 3.8125 -23.8125 3.8125 -21.8125 3.8125 C-21.4825 2.8225 -21.1525 1.8325 -20.8125 0.8125 C-13.80151998 -3.13117626 -7.24405766 -3.77071638 0 0 Z " fill="#0086CD" transform="translate(136.8125,212.1875)"/>
<path d="M0 0 C2.99834228 1.59911588 4.29950268 2.47400535 5.8125 5.5 C6.25 8.5 6.25 8.5 5.8125 11.5 C3.8125 13.875 3.8125 13.875 1.8125 15.5 C2.4725 16.16 3.1325 16.82 3.8125 17.5 C4.06646729 19.58728027 4.06646729 19.58728027 4.07128906 22.19335938 C4.07759338 23.16776978 4.08389771 24.14218018 4.09039307 25.14611816 C4.0863446 26.20133667 4.08229614 27.25655518 4.078125 28.34375 C4.08003845 29.42378296 4.0819519 30.50381592 4.08392334 31.61657715 C4.08528607 33.90307854 4.08158352 36.18958764 4.07324219 38.47607422 C4.06254412 41.98552755 4.07313473 45.49446893 4.0859375 49.00390625 C4.08461592 51.2213553 4.08205356 53.43880403 4.078125 55.65625 C4.08217346 56.71146851 4.08622192 57.76668701 4.09039307 58.85388184 C4.08408875 59.82829224 4.07778442 60.80270264 4.07128906 61.80664062 C4.06890228 63.09664978 4.06890228 63.09664978 4.06646729 64.41271973 C3.8125 66.5 3.8125 66.5 1.8125 68.5 C-0.0625 68.765625 -0.0625 68.765625 -2.1875 68.75 C-2.88875 68.75515625 -3.59 68.7603125 -4.3125 68.765625 C-6.1875 68.5 -6.1875 68.5 -8.1875 66.5 C-8.39004517 64.38148499 -8.39004517 64.38148499 -8.32275391 61.73071289 C-8.30258209 60.73950943 -8.28241028 59.74830597 -8.2616272 58.72706604 C-8.22943085 57.65311081 -8.1972345 56.57915558 -8.1640625 55.47265625 C-8.13903656 54.37279892 -8.11401062 53.27294159 -8.08822632 52.13975525 C-8.00586042 48.61369769 -7.9093898 45.08818555 -7.8125 41.5625 C-7.75427005 39.18817387 -7.69696658 36.81382482 -7.640625 34.43945312 C-7.51539543 29.20788471 -7.38110341 23.97663312 -7.23892212 18.74549866 C-6.93166926 14.62739594 -6.93166926 14.62739594 -9.1875 11.3125 C-9.8475 10.714375 -10.5075 10.11625 -11.1875 9.5 C-10.29223632 5.56083982 -9.46499063 3.75226421 -6.4375 1 C-3.1875 -0.5 -3.1875 -0.5 0 0 Z " fill="#0B4069" transform="translate(277.1875,188.5)"/>
<path d="M0 0 C0 0.66 0 1.32 0 2 C0.66 2 1.32 2 2 2 C2 4.97 2 7.94 2 11 C1.31292969 11.29132813 0.62585938 11.58265625 -0.08203125 11.8828125 C-0.98308594 12.29273438 -1.88414062 12.70265625 -2.8125 13.125 C-3.70582031 13.51945313 -4.59914063 13.91390625 -5.51953125 14.3203125 C-8.73906327 16.50046804 -9.52024248 18.4200432 -11 22 C-11.48094856 25.35858168 -11.48094856 25.35858168 -11.4765625 28.89453125 C-11.5075 30.17908203 -11.5384375 31.46363281 -11.5703125 32.78710938 C-11.58930545 34.12889566 -11.60752561 35.47069308 -11.625 36.8125 C-11.67298139 39.46505028 -11.73021047 42.11717704 -11.7890625 44.76953125 C-11.80662598 45.94104736 -11.82418945 47.11256348 -11.84228516 48.31958008 C-12 51 -12 51 -13 52 C-15.67058851 52.14115161 -18.32432238 52.04247107 -21 52 C-24.37922281 42.75886007 -24.30537016 33.34568959 -23.25390625 23.65625 C-22.95133037 21.00393099 -22.95133037 21.00393099 -23.0390625 18.34375 C-22.96329341 13.79760436 -20.60819507 10.69038359 -17.6875 7.375 C-11.88733501 2.2492728 -7.69375543 -0.21371543 0 0 Z " fill="#0B3D6B" transform="translate(264,205)"/>
<path d="M0 0 C3.97921094 -0.02682614 7.95824341 -0.04675393 11.9375 -0.0625 C13.07380859 -0.07087891 14.21011719 -0.07925781 15.38085938 -0.08789062 C16.46044922 -0.09111328 17.54003906 -0.09433594 18.65234375 -0.09765625 C20.15269165 -0.10551147 20.15269165 -0.10551147 21.68334961 -0.11352539 C24 0 24 0 25 1 C25.13568319 4.66344611 25.16461426 7.50615721 24 11 C23.01 11 22.02 11 21 11 C21 8.36 21 5.72 21 3 C20.01 3.495 20.01 3.495 19 4 C18.26924352 6.3140622 17.59861742 8.64828869 17 11 C16.01 11 15.02 11 14 11 C14 8.69 14 6.38 14 4 C13.34 3.67 12.68 3.34 12 3 C11.67 5.64 11.34 8.28 11 11 C9.68 11 8.36 11 7 11 C7.33 8.36 7.66 5.72 8 3 C6.00136244 3.57944932 6.00136244 3.57944932 4 5 C2.70768358 8.04199472 2.70768358 8.04199472 2 11 C1.01 11 0.02 11 -1 11 C-0.67 7.37 -0.34 3.74 0 0 Z " fill="#0089D0" transform="translate(257,282)"/>
<path d="M0 0 C1.47906892 -0.02689216 2.95827483 -0.04634621 4.4375 -0.0625 C5.26121094 -0.07410156 6.08492187 -0.08570313 6.93359375 -0.09765625 C9 0 9 0 10 1 C10.04080783 2.99958364 10.04254356 5.00045254 10 7 C10.66 6.67 11.32 6.34 12 6 C11.67 5.01 11.34 4.02 11 3 C11.66 2.01 12.32 1.02 13 0 C16.125 -0.1875 16.125 -0.1875 19 0 C20.09322542 4.09959531 19.87505695 6.84347947 19 11 C16.1875 11.625 16.1875 11.625 13 12 C12.01 11.34 11.02 10.68 10 10 C7.84725052 10.30840599 7.84725052 10.30840599 6 11 C6 8.69 6 6.38 6 4 C5.34 4 4.68 4 4 4 C3.34 6.31 2.68 8.62 2 11 C1.01 11 0.02 11 -1 11 C-1.07442057 7.13013042 -1.04702186 3.7264085 0 0 Z M14 7 C14 7.66 14 8.32 14 9 C14.66 9 15.32 9 16 9 C16 8.34 16 7.68 16 7 C15.34 7 14.68 7 14 7 Z " fill="#0089D0" transform="translate(216,282)"/>
<path d="M0 0 C5.33333333 0 10.66666667 0 16 0 C17.26026798 2.52053595 16.91874445 3.8542098 16.5625 6.625 C16.46066406 7.44226563 16.35882813 8.25953125 16.25390625 9.1015625 C16.17011719 9.72804688 16.08632812 10.35453125 16 11 C9.9453125 11.9765625 9.9453125 11.9765625 8 12 C7.34 11.34 6.68 10.68 6 10 C6.375 6.875 6.375 6.875 7 4 C5.68 4 4.36 4 3 4 C2.67 6.31 2.34 8.62 2 11 C0.68 11 -0.64 11 -2 11 C-1.34 7.37 -0.68 3.74 0 0 Z M10 7 C10 7.66 10 8.32 10 9 C10.99 8.67 11.98 8.34 13 8 C12.01 7.67 11.02 7.34 10 7 Z " fill="#0089D0" transform="translate(197,282)"/>
<path d="M0 0 C1.22589844 0.01353516 1.22589844 0.01353516 2.4765625 0.02734375 C3.41628906 0.04474609 3.41628906 0.04474609 4.375 0.0625 C3.74581625 12.45091117 3.74581625 12.45091117 0.375 16.0625 C-2.61189164 17.21130448 -3.96374989 17.33057437 -6.9375 16.125 C-7.494375 15.774375 -8.05125 15.42375 -8.625 15.0625 C-8.439375 14.32 -8.25375 13.5775 -8.0625 12.8125 C-7.44494411 10.16729816 -7.44494411 10.16729816 -8.1875 8.0625 C-8.80965254 5.21837412 -7.92918242 3.60222365 -6.625 1.0625 C-4.21954362 -0.14022819 -2.67503047 -0.03821472 0 0 Z M-3.625 3.0625 C-3.955 4.3825 -4.285 5.7025 -4.625 7.0625 C-3.305 7.0625 -1.985 7.0625 -0.625 7.0625 C-0.625 5.7425 -0.625 4.4225 -0.625 3.0625 C-1.615 3.0625 -2.605 3.0625 -3.625 3.0625 Z M-5.625 11.0625 C-5.295 11.7225 -4.965 12.3825 -4.625 13.0625 C-3.305 12.7325 -1.985 12.4025 -0.625 12.0625 C-0.625 11.7325 -0.625 11.4025 -0.625 11.0625 C-2.275 11.0625 -3.925 11.0625 -5.625 11.0625 Z " fill="#0089D0" transform="translate(308.625,281.9375)"/>
<path d="M0 0 C1.32 0 2.64 0 4 0 C4.66 2.64 5.32 5.28 6 8 C8.01136276 5.44008376 9.62845496 2.95409701 11 0 C13.64 0 16.28 0 19 0 C18.67 1.32 18.34 2.64 18 4 C16.68 4 15.36 4 14 4 C12.02 7.96 10.04 11.92 8 16 C6.35 16 4.7 16 3 16 C2.49595192 13.89679937 1.99689492 11.79240209 1.5 9.6875 C1.08234375 7.92986328 1.08234375 7.92986328 0.65625 6.13671875 C0 3 0 3 0 0 Z " fill="#0089D0" transform="translate(320,277)"/>
<path d="M0 0 C2 3 2 3 1.875 6 C1 9 1 9 -0.6875 10.9375 C-3.80957758 12.37196808 -5.73472147 11.87074094 -9 11 C-10 10 -10 10 -10.25 6.625 C-10 3 -10 3 -8.9375 1.0625 C-5.88907484 -0.60921702 -3.39471203 -0.37033222 0 0 Z M-5 3 C-5.66 4.32 -6.32 5.64 -7 7 C-5.68 7.33 -4.36 7.66 -3 8 C-2.67 6.35 -2.34 4.7 -2 3 C-2.99 3 -3.98 3 -5 3 Z " fill="#0089D0" transform="translate(364,282)"/>
<path d="M0 0 C2 1 2 1 2.8125 3.25 C3.05930695 6.86983532 2.35661495 8.26328587 0 11 C-3 11.9375 -3 11.9375 -6 12 C-9 10 -9 10 -9.8125 8.1875 C-10.05991146 5.30103291 -9.31210831 3.55515829 -8 1 C-5.26094655 -0.36952673 -3.02912668 -0.12621361 0 0 Z M-4 3 C-4.66 3.66 -5.32 4.32 -6 5 C-6 5.99 -6 6.98 -6 8 C-4.35 7.67 -2.7 7.34 -1 7 C-1.33 5.68 -1.66 4.36 -2 3 C-2.66 3 -3.32 3 -4 3 Z " fill="#0089D0" transform="translate(253,282)"/>
<path d="M0 0 C1.23556641 0.01740234 1.23556641 0.01740234 2.49609375 0.03515625 C3.32238281 0.04417969 4.14867187 0.05320312 5 0.0625 C5.63808594 0.07410156 6.27617187 0.08570313 6.93359375 0.09765625 C8.21930804 7.52622768 8.21930804 7.52622768 6.93359375 11.09765625 C5.61359375 11.09765625 4.29359375 11.09765625 2.93359375 11.09765625 C3.26359375 8.45765625 3.59359375 5.81765625 3.93359375 3.09765625 C0.6189867 4.80658124 0.6189867 4.80658124 0.24609375 8.22265625 C0.14296875 9.17140625 0.03984375 10.12015625 -0.06640625 11.09765625 C-1.38640625 11.09765625 -2.70640625 11.09765625 -4.06640625 11.09765625 C-3.92597748 9.45135297 -3.77891296 7.80561446 -3.62890625 6.16015625 C-3.54769531 5.24363281 -3.46648437 4.32710938 -3.3828125 3.3828125 C-2.93361936 0.13863986 -2.93361936 0.13863986 0 0 Z " fill="#0089D0" transform="translate(370.06640625,281.90234375)"/>
<path d="M0 0 C6.8359375 -0.1953125 6.8359375 -0.1953125 9 0 C9.66 0.66 10.32 1.32 11 2 C10.9765625 4.1640625 10.9765625 4.1640625 10.625 6.625 C10.45871094 7.85089844 10.45871094 7.85089844 10.2890625 9.1015625 C10.14597656 10.04128906 10.14597656 10.04128906 10 11 C8.68 11 7.36 11 6 11 C6.33 8.36 6.66 5.72 7 3 C6.01 3 5.02 3 4 3 C3.67 5.31 3.34 7.62 3 10 C1.68 10.33 0.36 10.66 -1 11 C-0.67 7.37 -0.34 3.74 0 0 Z " fill="#0089D0" transform="translate(289,282)"/>
<path d="M0 0 C1.134375 0.020625 2.26875 0.04125 3.4375 0.0625 C4 2 4 2 4.4375 4.0625 C4.1075 4.3925 3.7775 4.7225 3.4375 5.0625 C3.458125 5.866875 3.47875 6.67125 3.5 7.5 C3.4375 10.0625 3.4375 10.0625 1.4375 12.0625 C-1.6875 11.6875 -1.6875 11.6875 -4.5625 11.0625 C-5.125 9.125 -5.125 9.125 -5.5625 7.0625 C-5.2325 6.7325 -4.9025 6.4025 -4.5625 6.0625 C-4.5625 5.2375 -4.5625 4.4125 -4.5625 3.5625 C-4.5625 -0.39129442 -4.08010851 0.07158085 0 0 Z M-2.5625 7.0625 C-2.2325 7.7225 -1.9025 8.3825 -1.5625 9.0625 C-0.9025 8.7325 -0.2425 8.4025 0.4375 8.0625 C-0.5525 7.7325 -1.5425 7.4025 -2.5625 7.0625 Z " fill="#0089D0" transform="translate(383.5625,281.9375)"/>
<path d="M0 0 C0.94875 0.04125 1.8975 0.0825 2.875 0.125 C3.96822542 4.22459531 3.75005695 6.96847947 2.875 11.125 C0.0625 11.75 0.0625 11.75 -3.125 12.125 C-4.115 11.465 -5.105 10.805 -6.125 10.125 C-6.125 9.135 -6.125 8.145 -6.125 7.125 C-5.465 6.795 -4.805 6.465 -4.125 6.125 C-4.33125 5.50625 -4.5375 4.8875 -4.75 4.25 C-4.87375 3.54875 -4.9975 2.8475 -5.125 2.125 C-3.125 0.125 -3.125 0.125 0 0 Z M-2.125 7.125 C-2.125 7.785 -2.125 8.445 -2.125 9.125 C-1.465 9.125 -0.805 9.125 -0.125 9.125 C-0.125 8.465 -0.125 7.805 -0.125 7.125 C-0.785 7.125 -1.445 7.125 -2.125 7.125 Z " fill="#0089D0" transform="translate(344.125,281.875)"/>
<path d="M0 0 C3.96 0 7.92 0 12 0 C12 0.99 12 1.98 12 3 C10.35 3 8.7 3 7 3 C6.67 7.29 6.34 11.58 6 16 C4.68 16 3.36 16 2 16 C2.14084796 14.20793453 2.28783701 12.41635083 2.4375 10.625 C2.51871094 9.62726563 2.59992188 8.62953125 2.68359375 7.6015625 C3 5 3 5 4 3 C2.35 3 0.7 3 -1 3 C-0.67 2.01 -0.34 1.02 0 0 Z " fill="#0089D0" transform="translate(186,277)"/>
<path d="M0 0 C0.763125 0.103125 1.52625 0.20625 2.3125 0.3125 C2.3125 1.3025 2.3125 2.2925 2.3125 3.3125 C1.3225 3.3125 0.3325 3.3125 -0.6875 3.3125 C-0.6875 3.9725 -0.6875 4.6325 -0.6875 5.3125 C-0.0275 5.3125 0.6325 5.3125 1.3125 5.3125 C1.3125 6.3025 1.3125 7.2925 1.3125 8.3125 C0.3225 8.3125 -0.6675 8.3125 -1.6875 8.3125 C-1.666875 9.26125 -1.64625 10.21 -1.625 11.1875 C-1.6875 14.3125 -1.6875 14.3125 -2.6875 16.3125 C-3.6775 16.3125 -4.6675 16.3125 -5.6875 16.3125 C-6.14905734 6.55141706 -6.14905734 6.55141706 -4.5 2.125 C-2.6875 0.3125 -2.6875 0.3125 0 0 Z " fill="#0089D0" transform="translate(242.6875,276.6875)"/>
<path d="M0 0 C0.99 0 1.98 0 3 0 C3.14285714 7.42857143 3.14285714 7.42857143 2 11 C0.68 11 -0.64 11 -2 11 C-1.34 7.37 -0.68 3.74 0 0 Z " fill="#0089D0" transform="translate(350,282)"/>
<path d="M0 0 C0.99 0 1.98 0 3 0 C3.14285714 7.42857143 3.14285714 7.42857143 2 11 C0.68 11 -0.64 11 -2 11 C-1.34 7.37 -0.68 3.74 0 0 Z " fill="#0089D0" transform="translate(335,282)"/>
<path d="M0 0 C1.32 0 2.64 0 4 0 C3.34 3.63 2.68 7.26 2 11 C1.01 11 0.02 11 -1 11 C-1.14285714 3.57142857 -1.14285714 3.57142857 0 0 Z " fill="#0089D0" transform="translate(284,282)"/>
<path d="M0 0 C0.99 0 1.98 0 3 0 C2.25 6.625 2.25 6.625 0 10 C-0.66 10 -1.32 10 -2 10 C-1.54177532 6.53058454 -1.10868317 3.32604951 0 0 Z " fill="#FFE247" transform="translate(388,267)"/>
<path d="M0 0 C1.875 0.3125 1.875 0.3125 4 1 C6 4 6 4 6 8 C2.83884224 6.63016497 2.0072908 6.0109362 0 3 C0 2.01 0 1.02 0 0 Z " fill="#FFE247" transform="translate(376,270)"/>
<path d="M0 0 C-1.36983503 3.16115776 -1.9890638 3.9927092 -5 6 C-6.32 6 -7.64 6 -9 6 C-9 5.34 -9 4.68 -9 4 C-3.70588235 0 -3.70588235 0 0 0 Z " fill="#FFE247" transform="translate(399,274)"/>
<path d="M0 0 C0.99 0 1.98 0 3 0 C2.67 1.32 2.34 2.64 2 4 C1.01 3.67 0.02 3.34 -1 3 C-0.67 2.01 -0.34 1.02 0 0 Z " fill="#0089D0" transform="translate(351,277)"/>
<path d="M0 0 C1.32 0.33 2.64 0.66 4 1 C3.67 1.99 3.34 2.98 3 4 C2.01 4 1.02 4 0 4 C0 2.68 0 1.36 0 0 Z " fill="#0089D0" transform="translate(285,277)"/>
<path d="" fill="#00FFFF" transform="translate(0,0)"/>
<path d="" fill="#00FFFF" transform="translate(0,0)"/>
<path d="" fill="#000080" transform="translate(0,0)"/>
<path d="" fill="#000080" transform="translate(0,0)"/>
<path d="" fill="#000080" transform="translate(0,0)"/>
<path d="" fill="#00007F" transform="translate(0,0)"/>
<path d="" fill="#00007F" transform="translate(0,0)"/>
<path d="" fill="#000080" transform="translate(0,0)"/>
<path d="" fill="#000080" transform="translate(0,0)"/>
<path d="" fill="#000080" transform="translate(0,0)"/>
<path d="" fill="#000080" transform="translate(0,0)"/>
<path d="" fill="#000080" transform="translate(0,0)"/>
<path d="" fill="#000000" transform="translate(0,0)"/>
<path d="" fill="#000000" transform="translate(0,0)"/>
</svg>
