<?xml version="1.0" encoding="UTF-8"?>
<svg version="1.1" xmlns="http://www.w3.org/2000/svg" width="430" height="117">
<path d="M0 0 C141.9 0 283.8 0 430 0 C430 38.61 430 77.22 430 117 C288.1 117 146.2 117 0 117 C0 78.39 0 39.78 0 0 Z " fill="#FCFDFD" transform="translate(0,0)"/>
<path d="M0 0 C22.44 0 44.88 0 68 0 C68 0.33 68 0.66 68 1 C67.43192627 1.0093457 66.86385254 1.01869141 66.27856445 1.02832031 C49.77905019 1.36855087 36.6615587 2.96293647 23 13 C22.29230469 13.50015625 21.58460937 14.0003125 20.85546875 14.515625 C11.12624826 22.11477947 3.85927412 34.87802203 2 47 C0.21229926 66.93362078 3.47918621 82.18294053 16 98 C16.66 98.66 17.32 99.32 18 100 C18.00586624 99.43338654 18.01173248 98.86677307 18.01777649 98.2829895 C18.08209246 92.34459301 18.16660688 86.40671947 18.26245117 80.46875 C18.29554802 78.25755746 18.32362656 76.04628353 18.34643555 73.83496094 C18.38026297 70.64222782 18.43259209 67.45023042 18.48828125 64.2578125 C18.49467117 63.28135773 18.5010611 62.30490295 18.50764465 61.29885864 C18.79868755 47.47435798 23.88703163 37.34026427 33.77734375 27.79296875 C43.70043995 19.78822156 54.76310978 19.02756788 67 20 C77.76080411 22.10399704 86.15255456 28.81277304 92.4921875 37.5703125 C98.49638637 47.24547234 99.80863586 57.97290828 97.3046875 69.0859375 C93.43538022 80.69385934 86.86350302 88.47877192 76.31640625 94.54296875 C66.37619225 99.35797065 55.31914422 99.81663973 44.875 96.25 C40.73049594 94.5816054 37.86696553 92.57797702 34 90 C34 97.26 34 104.52 34 112 C35.65 112.33 37.3 112.66 39 113 C41.10677673 113.51017304 43.21091862 114.03133108 45.3125 114.5625 C46.38113281 114.83191406 47.44976562 115.10132812 48.55078125 115.37890625 C49.35902344 115.58386719 50.16726562 115.78882812 51 116 C51 116.33 51 116.66 51 117 C34.17 117 17.34 117 0 117 C0 78.39 0 39.78 0 0 Z " fill="#FAFCFE" transform="translate(0,0)"/>
<path d="M0 0 C0.95382568 -0.01039307 1.90765137 -0.02078613 2.89038086 -0.03149414 C19.38108514 0.17433801 31.85793102 6.96112737 43.375 18.4375 C44.22191406 19.24960937 44.22191406 19.24960937 45.0859375 20.078125 C56.41757306 31.94936226 58.96625526 47.26719091 58.69140625 62.95703125 C58.10101555 77.41542774 51.23430751 90.06016108 41.375 100.4375 C26.86585361 112.72585868 11.34245952 117.61535081 -7.625 116.4375 C-13.59258167 115.38116945 -19.00026857 113.68739257 -24.625 111.4375 C-24.625 104.1775 -24.625 96.9175 -24.625 89.4375 C-23.305 90.0975 -21.985 90.7575 -20.625 91.4375 C-19.12968766 92.13513692 -17.62952078 92.8224504 -16.125 93.5 C-15.3721875 93.84160156 -14.619375 94.18320313 -13.84375 94.53515625 C-5.1196592 98.08315797 6.10902255 97.79142294 14.8125 94.375 C24.46684618 89.68537187 30.67880079 84.14598876 35.375 74.4375 C35.7153125 73.74011719 36.055625 73.04273437 36.40625 72.32421875 C39.90231663 63.72972162 39.6580042 53.29525428 36.8125 44.5625 C32.4000046 34.14281787 24.81889293 26.59082152 14.5 22.0625 C4.88639649 18.87137359 -8.15376093 18.46149673 -17.390625 22.984375 C-28.58859231 30.26696913 -35.63194683 39.48076051 -38.625 52.4375 C-39.04604944 56.26620634 -39.11207882 60.06444758 -39.13671875 63.9140625 C-39.15466995 64.96532318 -39.17262115 66.01658386 -39.19111633 67.09970093 C-39.24481472 70.4205945 -39.27898467 73.74134773 -39.3125 77.0625 C-39.34570881 79.32944645 -39.3802017 81.59637446 -39.41601562 83.86328125 C-39.50051736 89.38789482 -39.56903644 94.91252751 -39.625 100.4375 C-49.11618496 93.13242606 -55.82597357 81.26818374 -57.625 69.4375 C-59.0957734 51.58385205 -57.53156881 37.14450207 -46.625 22.4375 C-46.05136719 21.65632813 -45.47773437 20.87515625 -44.88671875 20.0703125 C-33.46481648 5.93356836 -17.70841409 0.17137632 0 0 Z " fill="#0E87E5" transform="translate(58.625,0.5625)"/>
<path d="M0 0 C9.36625414 5.75794312 15.73018524 12.79907164 18.3828125 23.46484375 C19.69898318 34.94337077 17.75228115 43.37087422 10.77734375 52.5859375 C4.75972879 59.23247184 -3.28319385 62.76440211 -12.08984375 63.73828125 C-19.83086972 64.0418509 -25.75387759 61.96536134 -32.6171875 58.46484375 C-32.9471875 58.13484375 -33.2771875 57.80484375 -33.6171875 57.46484375 C-33.9471875 64.06484375 -34.2771875 70.66484375 -34.6171875 77.46484375 C-38.5771875 77.46484375 -42.5371875 77.46484375 -46.6171875 77.46484375 C-46.74128979 69.67274709 -46.83176758 61.88123272 -46.8918457 54.08837891 C-46.91690509 51.44049043 -46.95096185 48.79267053 -46.99438477 46.14501953 C-47.05541029 42.32697571 -47.08348482 38.50985081 -47.10546875 34.69140625 C-47.14417839 32.93142807 -47.14417839 32.93142807 -47.18367004 31.13589478 C-47.1869191 21.49675721 -44.3086026 13.28666432 -37.65234375 6.13671875 C-26.80415887 -2.7750339 -13.18563017 -6.11412884 0 0 Z " fill="#053A65" transform="translate(173.6171875,30.53515625)"/>
<path d="M0 0 C2.80871765 1.84278136 5.43118809 3.83715837 8 6 C8.49628906 5.51789062 8.99257813 5.03578125 9.50390625 4.5390625 C15.46327232 -1.00190406 20.44711271 -3.50987635 28.828125 -3.25 C35.90669436 -2.43520065 42.95640225 -0.2035167 48 5 C54.01237572 13.25681462 55.15533789 19.69697024 55.09765625 29.67578125 C55.0962413 30.6009404 55.09482635 31.52609955 55.09336853 32.47929382 C55.08778715 35.42372927 55.07523805 38.36808767 55.0625 41.3125 C55.05748259 43.31314994 55.05292011 45.31380108 55.04882812 47.31445312 C55.03782381 52.20966494 55.02057198 57.10481942 55 62 C50.71 62 46.42 62 42 62 C41.98541748 60.78940918 41.97083496 59.57881836 41.95581055 58.33154297 C41.89768315 53.82490019 41.8204511 49.31874951 41.73754883 44.8125 C41.70436735 42.86499032 41.67631443 40.91738603 41.65356445 38.96972656 C41.61989366 36.16430485 41.56757173 33.35974472 41.51171875 30.5546875 C41.50532883 29.68883026 41.4989389 28.82297302 41.49235535 27.93087769 C41.37088519 22.89637056 40.78808529 19.35833827 38 15 C33.89749819 11.28821264 30.56186211 10.35542641 25.18359375 10.609375 C21.73310226 11.22663645 19.60216846 12.71516915 17 15 C15.24543257 17.87066635 14.74015003 20.05816486 14.68115234 23.40136719 C14.66128265 24.2619574 14.64141296 25.12254761 14.62094116 26.00921631 C14.60361435 27.38910736 14.60361435 27.38910736 14.5859375 28.796875 C14.56657135 29.74564514 14.5472052 30.69441528 14.5272522 31.67193604 C14.46754341 34.69786633 14.42110567 37.72383484 14.375 40.75 C14.33681223 42.80340187 14.29776003 44.85678786 14.2578125 46.91015625 C14.16184892 51.93997496 14.07778554 56.96986865 14 62 C9.71 62 5.42 62 1 62 C0.9906543 60.75911621 0.98130859 59.51823242 0.97167969 58.23974609 C0.93170717 53.62122134 0.86592793 49.00335762 0.79248047 44.38525391 C0.76431297 42.38924675 0.74307748 40.39312894 0.72900391 38.39697266 C0.70751597 35.52188636 0.66083574 32.64812471 0.609375 29.7734375 C0.60814636 28.88570648 0.60691772 27.99797546 0.60565186 27.08334351 C0.47644291 21.57638955 -0.33861796 18.37270219 -4 14 C-7.62170912 10.89567789 -11.06634114 10.37186923 -15.7109375 10.50390625 C-19.73453573 11.37591474 -22.35202757 13.95798406 -25 17 C-26.1415622 19.2831244 -26.15334372 20.63479305 -26.20532227 23.17431641 C-26.22526749 24.03505768 -26.24521271 24.89579895 -26.26576233 25.78262329 C-26.28247482 26.71287323 -26.29918732 27.64312317 -26.31640625 28.6015625 C-26.33718735 29.55316254 -26.35796844 30.50476257 -26.37937927 31.48519897 C-26.44488133 34.53172432 -26.5037628 37.57833743 -26.5625 40.625 C-26.60568459 42.68750916 -26.64929886 44.75000937 -26.69335938 46.8125 C-26.8005634 51.87490954 -26.90182902 56.93740755 -27 62 C-31.29 62 -35.58 62 -40 62 C-40.07447293 55.88023503 -40.12875469 49.76073722 -40.16479492 43.640625 C-40.17982843 41.56115113 -40.20026074 39.48170869 -40.22631836 37.40234375 C-40.26294136 34.40356666 -40.27978111 31.40521089 -40.29296875 28.40625 C-40.30845261 27.48509399 -40.32393646 26.56393799 -40.33988953 25.61486816 C-40.34200873 17.38181557 -38.46527396 10.79232386 -32.81640625 4.60546875 C-23.37801307 -3.73685296 -11.34031071 -5.53829128 0 0 Z " fill="#053B66" transform="translate(302,31)"/>
<path d="M0 0 C4.4126234 3.27204223 6.56487658 5.55864847 9.48046875 10.41796875 C-2.06953125 21.96796875 -13.61953125 33.51796875 -25.51953125 45.41796875 C-21.2378575 48.27241792 -17.54462697 48.1475382 -12.51953125 47.41796875 C-6.53155076 44.94932943 -2.22416023 40.93339736 0.609375 35.08984375 C1.58165912 32.10759112 1.40876966 30.25695423 1.04296875 27.16796875 C0.92326236 23.33215958 1.17226978 21.83714347 3.4765625 18.703125 C5.72937159 16.4784321 8.01318151 14.40061029 10.48046875 12.41796875 C15.99569423 19.1321563 15.24437022 28.1108004 14.48046875 36.41796875 C12.42462357 45.52242596 7.37084674 51.78778184 -0.39453125 56.73046875 C-9.10996249 61.61580016 -17.89453635 62.80014584 -27.58203125 60.29296875 C-36.26766351 57.41122409 -43.53008413 51.11834307 -47.77734375 43.01953125 C-51.27754664 34.67289359 -52.31129634 25.7869327 -49.4140625 17.10546875 C-44.54524658 6.66296812 -38.15469088 0.72903848 -27.51953125 -3.58203125 C-18.4799623 -6.39909613 -7.96960718 -5.00417195 0 0 Z " fill="#053A65" transform="translate(414.51953125,32.58203125)"/>
<path d="M0 0 C5.79168025 3.55341081 10.46424067 9.01220625 12.5 15.5 C13.53790858 23.6735301 13.18260182 30.49071 8.421875 37.37109375 C3.97581233 42.29610219 -1.63085901 46.17713051 -8.35546875 46.73828125 C-16.64511173 46.92292746 -22.26075665 46.448063 -28.43359375 40.69921875 C-33.50810322 35.26601214 -36.58930025 30.06532933 -36.875 22.5 C-36.55141153 13.93137728 -32.48156549 8.29307078 -26.5 2.5 C-19.50583893 -3.32846756 -8.27434609 -3.62711061 0 0 Z " fill="#0E87E5" transform="translate(70.5,36.5)"/>
<path d="M0 0 C4.66658693 2.6409285 8.35263793 6.64277586 10.75 11.4375 C11.40690809 19.13732434 11.64924031 25.24898592 6.75 31.4375 C2.03038246 36.26056121 -2.36098025 38.48620954 -9.0625 38.875 C-15.34421209 38.73478321 -19.31410246 36.22398799 -23.78515625 31.98046875 C-27.60927438 27.75498545 -28.94115129 23.73180473 -29.6875 18.1875 C-29.00071994 12.30081378 -26.80020386 6.88725819 -22.46484375 2.72265625 C-15.75349186 -2.19330214 -7.70827764 -3.47540842 0 0 Z " fill="#FBFCFC" transform="translate(168.25,42.5625)"/>
<path d="M0 0 C0 4.29 0 8.58 0 13 C-1.19625 13.2475 -2.3925 13.495 -3.625 13.75 C-7.74312037 14.80686275 -10.73074621 16.18692116 -14 19 C-16.88381971 24.43325233 -17.46277162 28.90578282 -17.51171875 34.99609375 C-17.52966995 35.82963882 -17.54762115 36.6631839 -17.56611633 37.52198792 C-17.61990295 40.16044188 -17.65401231 42.79871828 -17.6875 45.4375 C-17.72070112 47.23635267 -17.75519334 49.035182 -17.79101562 50.83398438 C-17.87561075 55.22252745 -17.94257173 59.61102077 -18 64 C-21.96 64 -25.92 64 -30 64 C-30.12441814 58.05932083 -30.21472356 52.11941469 -30.2746582 46.17773438 C-30.2996658 44.16034722 -30.3336834 42.14304941 -30.37719727 40.12597656 C-30.86025787 17.14365795 -30.86025787 17.14365795 -22.99072266 8.89355469 C-15.98761118 2.24334753 -9.56734801 0 0 0 Z " fill="#043965" transform="translate(230,28)"/>
<path d="M0 0 C4.29 0 8.58 0 13 0 C13 21.12 13 42.24 13 64 C8.71 64 4.42 64 0 64 C0 42.88 0 21.76 0 0 Z " fill="#063A65" transform="translate(237,29)"/>
<path d="M0 0 C0.845625 0.00644531 1.69125 0.01289062 2.5625 0.01953125 C4.83252477 0.17595924 6.81961604 0.55660186 9 1.1875 C7.41588094 5.0701895 4.77134362 7.70614365 1.84375 10.609375 C1.34081421 11.11422424 0.83787842 11.61907349 0.31970215 12.13922119 C-0.74029986 13.20057997 -1.80281488 14.25943419 -2.86767578 15.31591797 C-4.50140046 16.93889124 -6.12413294 18.57231068 -7.74609375 20.20703125 C-8.77800476 21.23762146 -9.81053559 22.26759152 -10.84375 23.296875 C-11.33025024 23.78742371 -11.81675049 24.27797241 -12.31799316 24.78338623 C-15.77005651 28.1875 -15.77005651 28.1875 -18 28.1875 C-20.28094455 23.6256109 -19.8221356 16.79954224 -18.31640625 12.015625 C-14.58848593 5.02384084 -8.01765424 -0.13444237 0 0 Z " fill="#F9FAFB" transform="translate(396,40.8125)"/>
<path d="M0 0 C2 1.6875 2 1.6875 3 4 C2.87304813 7.11032079 2.47953174 9.20078043 0.875 11.875 C-2.20515368 13.72309221 -4.50442383 13.49060718 -8 13 C-10.5 10.875 -10.5 10.875 -12 8 C-12 4.49267067 -11.6345092 2.7565302 -9.375 0.0625 C-5.88680246 -1.49800943 -3.63567102 -0.99154664 0 0 Z " fill="#0C3E68" transform="translate(248,13)"/>
<path d="M0 0 C2 2 2 2 2.24050903 3.83499146 C2.23606781 4.57667572 2.23162659 5.31835999 2.22705078 6.08251953 C2.22682419 7.34360031 2.22682419 7.34360031 2.22659302 8.63015747 C2.21627045 9.53853363 2.20594788 10.44690979 2.1953125 11.3828125 C2.1924826 12.31221649 2.18965271 13.24162048 2.18673706 14.19918823 C2.17552069 17.1745885 2.1504136 20.14969035 2.125 23.125 C2.11497208 25.13931858 2.1058459 27.15364186 2.09765625 29.16796875 C2.07557661 34.11209456 2.04103693 39.05599665 2 44 C-2.29 44 -6.58 44 -11 44 C-11 30.47 -11 16.94 -11 3 C-10.67 3 -10.34 3 -10 3 C-10 15.87 -10 28.74 -10 42 C-6.7 42 -3.4 42 0 42 C0 28.14 0 14.28 0 0 Z " fill="#264B73" transform="translate(355,49)"/>
<path d="M0 0 C0 3 0 3 -1.53125 4.82421875 C-2.1809375 5.43910156 -2.830625 6.05398437 -3.5 6.6875 C-4.1496875 7.31011719 -4.799375 7.93273438 -5.46875 8.57421875 C-5.9740625 9.04472656 -6.479375 9.51523437 -7 10 C-7.66 9.67 -8.32 9.34 -9 9 C-7.87895467 7.68412059 -6.75303035 6.37239647 -5.625 5.0625 C-4.99851563 4.33160156 -4.37203125 3.60070313 -3.7265625 2.84765625 C-2 1 -2 1 0 0 Z " fill="#1A456E" transform="translate(140,34)"/>
<path d="M0 0 C0.99 0.33 1.98 0.66 3 1 C0.36 3.64 -2.28 6.28 -5 9 C-5.33 8.34 -5.66 7.68 -6 7 C-4.02 4.69 -2.04 2.38 0 0 Z " fill="#1E8EE6" transform="translate(19,15)"/>
<path d="M0 0 C0 3 0 3 -1.3125 4.60546875 C-1.869375 5.12753906 -2.42625 5.64960937 -3 6.1875 C-3.556875 6.71730469 -4.11375 7.24710938 -4.6875 7.79296875 C-5.120625 8.19128906 -5.55375 8.58960938 -6 9 C-6.66 8.67 -7.32 8.34 -8 8 C-3.375 2.25 -3.375 2.25 0 0 Z " fill="#14416B" transform="translate(274,32)"/>
</svg>
