<?xml version="1.0" encoding="UTF-8"?>
<svg version="1.1" xmlns="http://www.w3.org/2000/svg" width="200" height="200">
<path d="M0 0 C66 0 132 0 200 0 C200 66 200 132 200 200 C134 200 68 200 0 200 C0 134 0 68 0 0 Z " fill="#FBFDFD" transform="translate(0,0)"/>
<path d="M0 0 C6.28770237 5.31286479 12.94692887 11.27000268 17.51953125 18.12890625 C17.51953125 19.11890625 17.51953125 20.10890625 17.51953125 21.12890625 C18.17953125 21.12890625 18.83953125 21.12890625 19.51953125 21.12890625 C23.7239375 27.76351895 26.48465806 34.41570405 28.83203125 41.87890625 C29.0861377 42.68239502 29.34024414 43.48588379 29.60205078 44.3137207 C35.8087756 64.72502681 32.76916036 86.80411148 23.2265625 105.6875 C22.03406712 107.86334542 20.78672906 109.99599904 19.51953125 112.12890625 C19.18050781 112.76570312 18.84148437 113.4025 18.4921875 114.05859375 C16.32164005 118.12074279 13.87977494 121.00309817 10.51953125 124.12890625 C9.81763672 124.89460938 9.81763672 124.89460938 9.1015625 125.67578125 C-5.20918125 141.08191526 -26.46365834 150.27893305 -47.3125 151.3203125 C-60.49248676 151.61726751 -73.17169137 150.10846418 -85.48046875 145.12890625 C-86.48046875 144.12890625 -86.48046875 144.12890625 -86.59399414 141.07788086 C-86.59383509 139.72899354 -86.58814487 138.38010011 -86.578125 137.03125 C-86.57671005 136.32239151 -86.5752951 135.61353302 -86.57383728 134.88319397 C-86.56822318 132.61088913 -86.55566838 130.3386815 -86.54296875 128.06640625 C-86.53795556 126.52929829 -86.53339234 124.9921888 -86.52929688 123.45507812 C-86.51824917 119.67964983 -86.50097516 115.90429454 -86.48046875 112.12890625 C-85.49046875 112.12890625 -84.50046875 112.12890625 -83.48046875 112.12890625 C-83.48046875 112.78890625 -83.48046875 113.44890625 -83.48046875 114.12890625 C-82.69671875 114.37640625 -81.91296875 114.62390625 -81.10546875 114.87890625 C-77.35867746 116.17090325 -73.70859392 117.62506003 -70.04296875 119.12890625 C-69.19734375 119.45890625 -68.35171875 119.78890625 -67.48046875 120.12890625 C-66.56523438 120.49371094 -65.65 120.85851562 -64.70703125 121.234375 C-51.48850303 124.89907592 -36.66194409 121.96081522 -24.73046875 115.87890625 C-12.01390611 108.65358657 -1.79720124 97.54979513 2.703125 83.41015625 C6.08539366 68.34482618 4.24737458 51.41482238 -3.10546875 37.87890625 C-8.23619917 30.00745654 -14.96959349 23.19932485 -23.48046875 19.12890625 C-23.48046875 18.46890625 -23.48046875 17.80890625 -23.48046875 17.12890625 C-24.52460938 16.94521484 -24.52460938 16.94521484 -25.58984375 16.7578125 C-28.73148343 16.0742936 -31.67820601 15.07538884 -34.73046875 14.06640625 C-50.38617294 9.56990421 -66.12452982 11.68170155 -80.51171875 19.25390625 C-86.52115837 23.0493418 -92.47885937 27.78979455 -96.1640625 33.9375 C-96.59847656 34.66066406 -97.03289062 35.38382813 -97.48046875 36.12890625 C-98.14046875 36.12890625 -98.80046875 36.12890625 -99.48046875 36.12890625 C-99.59390625 36.66773438 -99.70734375 37.2065625 -99.82421875 37.76171875 C-100.91279526 41.68836972 -102.68603558 45.33458433 -104.32421875 49.05859375 C-106.34744576 54.43108168 -106.6147345 59.62281326 -106.68579102 65.32763672 C-106.70064041 66.36770622 -106.70064041 66.36770622 -106.71578979 67.42878723 C-106.74716201 69.70118902 -106.77206522 71.97361166 -106.796875 74.24609375 C-106.81746555 75.82936113 -106.83846255 77.41262328 -106.85984802 78.99588013 C-106.91485184 83.14847554 -106.9643561 87.30111876 -107.01269531 91.45379639 C-107.06306943 95.69710509 -107.11867217 99.94034498 -107.17382812 104.18359375 C-107.28114411 112.4986396 -107.38264724 120.8137433 -107.48046875 129.12890625 C-108.14046875 129.12890625 -108.80046875 129.12890625 -109.48046875 129.12890625 C-126.43713487 111.27433113 -136.16893413 89.78885383 -135.88500977 65.21362305 C-135.26441388 44.55767352 -128.45312716 24.73186939 -113.48046875 10.12890625 C-112.69285156 9.14792969 -111.90523437 8.16695312 -111.09375 7.15625 C-83.33869833 -24.99646307 -32.29556401 -23.71275654 0 0 Z " fill="#0388D0" transform="translate(151.48046875,32.87109375)"/>
<path d="M0 0 C7.50851745 5.69573082 14.48073105 12.75523075 16.37109375 22.30078125 C17.47393421 33.56064614 15.80262255 42.8132404 9.24609375 52.11328125 C2.7394907 59.86848616 -6.74645616 64.38792398 -16.75390625 65.546875 C-26.00593882 65.85407139 -34.15526908 62.54680674 -41.62890625 57.30078125 C-48.91454701 49.90935986 -53.57157045 40.75019846 -53.87890625 30.30078125 C-53.61117383 21.73334396 -50.48654827 12.69093618 -44.62890625 6.30078125 C-43.96890625 6.30078125 -43.30890625 6.30078125 -42.62890625 6.30078125 C-42.29890625 5.31078125 -41.96890625 4.32078125 -41.62890625 3.30078125 C-30.03059256 -6.36448016 -13.01185513 -8.41033727 0 0 Z " fill="#0284CB" transform="translate(118.62890625,69.69921875)"/>
<path d="M0 0 C0.66 0 1.32 0 2 0 C3.85776765 3.13498292 4.20140476 5.37471432 4 9 C4.66 9 5.32 9 6 9 C7.16587551 16.30493873 7.07855253 23.49106255 7 30.875 C6.97458401 33.30985231 6.95351929 35.74475524 6.9375 38.1796875 C6.92589844 39.24944824 6.91429687 40.31920898 6.90234375 41.42138672 C6.82176754 43.98773849 6.82176754 43.98773849 8 46 C7.38125 46.5775 6.7625 47.155 6.125 47.75 C4.18652947 49.80249821 3.09985751 51.43366582 2 54 C1.34 54 0.68 54 0 54 C0 54.66 0 55.32 0 56 C-0.99 56.495 -0.99 56.495 -2 57 C-2 57.99 -2 58.98 -2 60 C-1.01 60 -0.02 60 1 60 C1 61.32 1 62.64 1 64 C-1.64 64 -4.28 64 -7 64 C-7 64.66 -7 65.32 -7 66 C-8.32 65.67 -9.64 65.34 -11 65 C-10.154375 64.0925 -9.30875 63.185 -8.4375 62.25 C0.5984719 51.66868374 4.39424818 41.21673087 4.375 27.5 C4.37628906 26.54399902 4.37757813 25.58799805 4.37890625 24.60302734 C4.25209983 15.9758679 2.62626315 8.18362356 0 0 Z " fill="#148AC5" transform="translate(151,74)"/>
<path d="M0 0 C0.99 0.33 1.98 0.66 3 1 C2.34 1 1.68 1 1 1 C1 10.9 1 20.8 1 31 C1.99 31 2.98 31 4 31 C4.33 29.68 4.66 28.36 5 27 C5 28.65 5 30.3 5 32 C5.928125 31.79375 6.85625 31.5875 7.8125 31.375 C11 31 11 31 14 33 C28.48493461 38.35312801 45.07596101 37.29110898 59.6875 32.97265625 C62.79131071 32.06127787 65.80222717 31.4630921 69 31 C64.53540171 35.46459829 58.10619643 36.65799001 52.0625 37.6875 C51.32668701 37.81342529 50.59087402 37.93935059 49.83276367 38.0690918 C33.39718495 40.66178108 16.48124489 39.26299049 1 33 C0 32 0 32 -0.11352539 28.94897461 C-0.11336634 27.60008729 -0.10767612 26.25119386 -0.09765625 24.90234375 C-0.0962413 24.19348526 -0.09482635 23.48462677 -0.09336853 22.75428772 C-0.08775443 20.48198288 -0.07519963 18.20977525 -0.0625 15.9375 C-0.05748681 14.40039204 -0.05292359 12.86328255 -0.04882812 11.32617188 C-0.03778042 7.55074358 -0.02050641 3.77538829 0 0 Z " fill="#3D97C3" transform="translate(65,145)"/>
<path d="M0 0 C-0.99 0.33 -1.98 0.66 -3 1 C-3.66 0.67 -4.32 0.34 -5 0 C-4.505 1.485 -4.505 1.485 -4 3 C-4.66 3 -5.32 3 -6 3 C-6 1.68 -6 0.36 -6 -1 C-8.64 -1 -11.28 -1 -14 -1 C-14 -1.66 -14 -2.32 -14 -3 C-14.99 -3.33 -15.98 -3.66 -17 -4 C-17.66 -4.33 -18.32 -4.66 -19 -5 C-19 -4.34 -19 -3.68 -19 -3 C-21.31 -3 -23.62 -3 -26 -3 C-25.67 -3.66 -25.34 -4.32 -25 -5 C-24.01 -5 -23.02 -5 -22 -5 C-22 -5.99 -22 -6.98 -22 -8 C-35.53 -8 -49.06 -8 -63 -8 C-45.97708672 -19.34860886 -15.93029049 -8.86122409 0 0 Z " fill="#268FC8" transform="translate(142,27)"/>
<path d="M0 0 C11.55 0 23.1 0 35 0 C35 0.66 35 1.32 35 2 C37.31 2.33 39.62 2.66 42 3 C42.495 4.98 42.495 4.98 43 7 C43.763125 6.773125 44.52625 6.54625 45.3125 6.3125 C46.199375 6.209375 47.08625 6.10625 48 6 C49.625 7.4375 49.625 7.4375 51 9 C51.99 9 52.98 9 54 9 C54.495 11.475 54.495 11.475 55 14 C55.66 14 56.32 14 57 14 C56.67 14.99 56.34 15.98 56 17 C55.16855469 16.36771484 55.16855469 16.36771484 54.3203125 15.72265625 C53.59585938 15.17480469 52.87140625 14.62695312 52.125 14.0625 C51.40570313 13.51722656 50.68640625 12.97195312 49.9453125 12.41015625 C48.05642921 10.96035376 48.05642921 10.96035376 46 10 C46 9.34 46 8.68 46 8 C45.30390625 7.87753906 44.6078125 7.75507812 43.890625 7.62890625 C40.74898532 6.94538735 37.80226274 5.94648259 34.75 4.9375 C22.2300413 1.34162088 10.40296886 2.2829612 -2 6 C-3.66294626 6.35142373 -5.32876189 6.69040013 -7 7 C-6.67 6.01 -6.34 5.02 -6 4 C-5.01 4.33 -4.02 4.66 -3 5 C-3 4.34 -3 3.68 -3 3 C-1.68 2.67 -0.36 2.34 1 2 C0.67 1.34 0.34 0.68 0 0 Z " fill="#2C91C5" transform="translate(82,42)"/>
<path d="M0 0 C0.33 0.66 0.66 1.32 1 2 C0.67 2.66 0.34 3.32 0 4 C0.66 4.66 1.32 5.32 2 6 C-2.455 6.495 -2.455 6.495 -7 7 C-6.67 8.32 -6.34 9.64 -6 11 C-6.99 11 -7.98 11 -9 11 C-8.67 11.66 -8.34 12.32 -8 13 C-7.960008 14.99960012 -7.95653201 17.00047242 -8 19 C-8.886875 18.814375 -9.77375 18.62875 -10.6875 18.4375 C-13.85178811 18.01957516 -15.94839642 18.19222258 -19 19 C-19.33 21.31 -19.66 23.62 -20 26 C-20.99 26 -21.98 26 -23 26 C-24.71711243 28.44496043 -24.71711243 28.44496043 -26 31 C-26.66 30.67 -27.32 30.34 -28 30 C-24.42687407 24.12030287 -21.09514404 18.69289583 -16 14 C-15.29875 13.071875 -14.5975 12.14375 -13.875 11.1875 C-10.11653903 6.52895453 -4.88299705 3.36935348 0 0 Z " fill="#138BC8" transform="translate(54,29)"/>
<path d="M0 0 C1.52738496 2.8762444 2.62485383 5.69519468 3.5625 8.8125 C3.93568359 10.02873047 3.93568359 10.02873047 4.31640625 11.26953125 C8.6944611 28.75673318 5.85749796 47.56985261 -1 64 C-2.14202912 60.57391264 -1.81164121 58.99904836 -1.125 55.5 C-0.94195312 54.5409375 -0.75890625 53.581875 -0.5703125 52.59375 C0 50 0 50 1 47 C1.66 47 2.32 47 3 47 C3.02917234 43.12501596 3.04685673 39.25006042 3.0625 35.375 C3.07087891 34.28058594 3.07925781 33.18617187 3.08789062 32.05859375 C3.09111328 30.99511719 3.09433594 29.93164062 3.09765625 28.8359375 C3.10289307 27.86188965 3.10812988 26.8878418 3.11352539 25.88427734 C2.99408403 22.84969607 2.5342952 19.98662666 2 17 C1.9379225 15.37605252 1.91287959 13.74994703 1.9375 12.125 C1.94652344 11.34382813 1.95554688 10.56265625 1.96484375 9.7578125 C1.97644531 9.17773438 1.98804688 8.59765625 2 8 C1.34 8 0.68 8 0 8 C0 5.36 0 2.72 0 0 Z " fill="#3091C5" transform="translate(178,70)"/>
<path d="M0 0 C0.99 0.33 1.98 0.66 3 1 C-0.38038306 7.92978527 -3.30358773 13.70101184 -9 19 C-10.18989514 20.20597481 -11.37726771 21.41444223 -12.5625 22.625 C-17.59728341 27.62701909 -17.59728341 27.62701909 -20 29 C-20.99 28.67 -21.98 28.34 -23 28 C-21.68 27.34 -20.36 26.68 -19 26 C-19.33 24.68 -19.66 23.36 -20 22 C-19.38125 21.7525 -18.7625 21.505 -18.125 21.25 C-15.85109061 20.19197336 -15.85109061 20.19197336 -15.125 18 C-14 16 -14 16 -11.0625 15.125 C-7.74737025 14.25807665 -7.74737025 14.25807665 -6.125 11.0625 C-4.82759127 8.07443108 -4.82759127 8.07443108 -5 5 C-3.68 5.33 -2.36 5.66 -1 6 C-0.67 4.02 -0.34 2.04 0 0 Z " fill="#1B8BC4" transform="translate(171,138)"/>
<path d="M0 0 C4.34716835 4.03056785 5.7448241 8.47254346 6.328125 14.25 C6.57099386 22.16058565 5.60579404 28.89369058 2 36 C1.34 36.66 0.68 37.32 0 38 C0.47252881 35.32233677 1.03991982 32.89396297 2 30.34375 C3.18405925 26.38455189 3.44675719 22.73201141 3.625 18.625 C3.66367188 17.88894531 3.70234375 17.15289062 3.7421875 16.39453125 C3.83557998 14.59672594 3.9188371 12.79839892 4 11 C2.68 11.33 1.36 11.66 0 12 C-0.33 11.34 -0.66 10.68 -1 10 C-0.0625 7.375 -0.0625 7.375 1 5 C0.34 5 -0.32 5 -1 5 C-0.67 3.35 -0.34 1.7 0 0 Z " fill="#2C88BA" transform="translate(129,81)"/>
<path d="M0 0 C0.8723412 2.99480917 1.10829766 5.63575911 1.0625 8.75 C1.05347656 9.54921875 1.04445313 10.3484375 1.03515625 11.171875 C1.01775391 12.07679687 1.01775391 12.07679687 1 13 C0.34 11.68 -0.32 10.36 -1 9 C-3.30491213 15.48256536 -4.65849277 23.1491161 -1.859375 29.6484375 C-1.57578125 30.42445312 -1.2921875 31.20046875 -1 32 C-1.66 32.99 -2.32 33.98 -3 35 C-6.53075843 23.56706794 -7.29787103 14.42266222 -1.875 3.5 C-0.946875 1.7675 -0.946875 1.7675 0 0 Z " fill="#3B95C3" transform="translate(71,80)"/>
<path d="M0 0 C0.33 0 0.66 0 1 0 C1 5.28 1 10.56 1 16 C-3.06346141 13.9682693 -4.45526695 12.55340189 -7.1875 9.0625 C-7.88230469 8.18722656 -8.57710937 7.31195313 -9.29296875 6.41015625 C-11 4 -11 4 -12 1 C-11.34 1 -10.68 1 -10 1 C-10 1.66 -10 2.32 -10 3 C-9.01 3 -8.02 3 -7 3 C-6.67 2.34 -6.34 1.68 -6 1 C-6 2.98 -6 4.96 -6 7 C-4.68 6.67 -3.36 6.34 -2 6 C-2 6.66 -2 7.32 -2 8 C-1.34 8 -0.68 8 0 8 C0 5.36 0 2.72 0 0 Z " fill="#0385CA" transform="translate(42,144)"/>
<path d="M0 0 C13.86 0.99 13.86 0.99 28 2 C25 5 25 5 23.09887695 5.34057617 C22.40238037 5.32486572 21.70588379 5.30915527 20.98828125 5.29296875 C20.23095703 5.28330078 19.47363281 5.27363281 18.69335938 5.26367188 C17.90767578 5.23853516 17.12199219 5.21339844 16.3125 5.1875 C15.11657227 5.16719727 15.11657227 5.16719727 13.89648438 5.14648438 C11.93070033 5.11117089 9.96526418 5.05736447 8 5 C8 4.01 8 3.02 8 2 C7.05125 2.04125 6.1025 2.0825 5.125 2.125 C2 2 2 2 0 0 Z " fill="#E4F9FD" transform="translate(80,182)"/>
<path d="M0 0 C1.11761719 -0.00515625 2.23523438 -0.0103125 3.38671875 -0.015625 C6.3125 0.25 6.3125 0.25 9.3125 2.25 C8.22710937 2.29898438 7.14171875 2.34796875 6.0234375 2.3984375 C4.57810216 2.47351986 3.13279081 2.54906528 1.6875 2.625 C0.97464844 2.6559375 0.26179688 2.686875 -0.47265625 2.71875 C-6.22063419 3.03515246 -10.80934742 3.99789828 -15.6875 7.25 C-17.875 6.875 -17.875 6.875 -19.6875 6.25 C-13.14921934 2.3270316 -7.79731465 -0.03622446 0 0 Z " fill="#4194BF" transform="translate(99.6875,64.75)"/>
<path d="M0 0 C1.1875 1.6875 1.1875 1.6875 2 4 C1.02616054 5.68208635 0.02304948 7.34738161 -1 9 C-1 10.010625 -1 11.02125 -1 12.0625 C-1 15 -1 15 -2.375 17.375 C-2.91125 17.91125 -3.4475 18.4475 -4 19 C-4.66 19 -5.32 19 -6 19 C-5.55230183 12.95607475 -4.49961114 4.49961114 0 0 Z " fill="#1F8CC5" transform="translate(25,61)"/>
<path d="M0 0 C0.66 0 1.32 0 2 0 C3.85776765 3.13498292 4.20140476 5.37471432 4 9 C4.66 9 5.32 9 6 9 C6 16.92 6 24.84 6 33 C5.67 33 5.34 33 5 33 C4.96132812 31.43765625 4.96132812 31.43765625 4.921875 29.84375 C4.54902057 19.43683268 2.89181769 9.99358393 0 0 Z " fill="#3091C4" transform="translate(151,74)"/>
<path d="M0 0 C3.80635497 3.20760251 7.54563567 6.40746109 11 10 C10.67 10.66 10.34 11.32 10 12 C9.67 11.67 9.34 11.34 9 11 C6.67182036 10.63239269 4.3381615 10.29758419 2 10 C1.87625 9.195625 1.7525 8.39125 1.625 7.5625 C1.315625 6.2940625 1.315625 6.2940625 1 5 C0.34 4.67 -0.32 4.34 -1 4 C-0.67 2.68 -0.34 1.36 0 0 Z " fill="#1C8DC7" transform="translate(156,38)"/>
<path d="M0 0 C6.75 2.25 6.75 2.25 9 5 C7.02 5 5.04 5 3 5 C3 4.01 3 3.02 3 2 C2.34 2 1.68 2 1 2 C1 11.24 1 20.48 1 30 C0.67 30 0.34 30 0 30 C0 20.1 0 10.2 0 0 Z " fill="#1285BA" transform="translate(66,146)"/>
<path d="M0 0 C-0.54723683 3.37462715 -1.0549 5.08235 -3 8 C-3.99 7.67 -4.98 7.34 -6 7 C-6 6.34 -6 5.68 -6 5 C-6.66 5 -7.32 5 -8 5 C-8 5.99 -8 6.98 -8 8 C-8.66 8 -9.32 8 -10 8 C-10 7.01 -10 6.02 -10 5 C-10.66 4.67 -11.32 4.34 -12 4 C-10.3767313 3.3291288 -8.75132422 2.66342971 -7.125 2 C-6.22007813 1.62875 -5.31515625 1.2575 -4.3828125 0.875 C-2 0 -2 0 0 0 Z " fill="#1D8EC8" transform="translate(126,150)"/>
<path d="M0 0 C0.5775 0.226875 1.155 0.45375 1.75 0.6875 C1.13125 0.935 0.5125 1.1825 -0.125 1.4375 C-2.36960058 2.49442259 -2.36960058 2.49442259 -3.1640625 4.5625 C-4.3882343 6.95800165 -5.69831148 8.2161681 -7.75 9.9375 C-8.3584375 10.45828125 -8.966875 10.9790625 -9.59375 11.515625 C-11.25 12.6875 -11.25 12.6875 -13.25 12.6875 C-13.25 12.0275 -13.25 11.3675 -13.25 10.6875 C-12.59 10.6875 -11.93 10.6875 -11.25 10.6875 C-10.92 9.3675 -10.59 8.0475 -10.25 6.6875 C-9.26 7.0175 -8.27 7.3475 -7.25 7.6875 C-7.1675 6.924375 -7.085 6.16125 -7 5.375 C-6.25 2.6875 -6.25 2.6875 -4.4375 0.8125 C-2.25 -0.3125 -2.25 -0.3125 0 0 Z " fill="#DEF4F9" transform="translate(144.25,133.3125)"/>
<path d="M0 0 C0.33 0 0.66 0 1 0 C0.80728999 9.56542436 -1.47692475 17.21181228 -5 26 C-6.14202912 22.57391264 -5.81164121 20.99904836 -5.125 17.5 C-4.94195312 16.5409375 -4.75890625 15.581875 -4.5703125 14.59375 C-4 12 -4 12 -3 9 C-2.34 9 -1.68 9 -1 9 C-0.67 6.03 -0.34 3.06 0 0 Z " fill="#288CBF" transform="translate(182,108)"/>
<path d="M0 0 C0.66 0 1.32 0 2 0 C1.34 1.65 0.68 3.3 0 5 C-0.66 5 -1.32 5 -2 5 C-2.12246094 5.56203125 -2.24492188 6.1240625 -2.37109375 6.703125 C-3.0519869 9.18986519 -3.99352325 11.40514776 -5.0625 13.75 C-5.60583984 14.94882813 -5.60583984 14.94882813 -6.16015625 16.171875 C-6.43730469 16.77515625 -6.71445312 17.3784375 -7 18 C-7.33 18 -7.66 18 -8 18 C-7.67 15.03 -7.34 12.06 -7 9 C-6.34 9 -5.68 9 -5 9 C-5 7.02 -5 5.04 -5 3 C-3.68 3.33 -2.36 3.66 -1 4 C-0.67 2.68 -0.34 1.36 0 0 Z " fill="#268BBF" transform="translate(54,64)"/>
<path d="M0 0 C5.452999 1.56818272 9.76486783 3.03810217 14 7 C12.35 6.67 10.7 6.34 9 6 C9.33 6.99 9.66 7.98 10 9 C9.34 9 8.68 9 8 9 C8 7.68 8 6.36 8 5 C5.36 5 2.72 5 0 5 C-0.33 4.01 -0.66 3.02 -1 2 C-0.67 1.34 -0.34 0.68 0 0 Z " fill="#1588C4" transform="translate(128,21)"/>
<path d="M0 0 C2 2 2 2 2 6 C1.34 6 0.68 6 0 6 C-0.28875 6.5775 -0.5775 7.155 -0.875 7.75 C-1.91666667 9.83333333 -2.95833333 11.91666667 -4 14 C-4.99 14 -5.98 14 -7 14 C-6.34097701 10.42959697 -4.83770842 7.82267745 -2.9375 4.75 C-2.38964844 3.85796875 -1.84179688 2.9659375 -1.27734375 2.046875 C-0.64505859 1.03367188 -0.64505859 1.03367188 0 0 Z " fill="#D7F0F6" transform="translate(174,138)"/>
<path d="M0 0 C0.33 1.32 0.66 2.64 1 4 C0.01 4 -0.98 4 -2 4 C-2.33 6.31 -2.66 8.62 -3 11 C-3.99 11 -4.98 11 -6 11 C-7.71711243 13.44496043 -7.71711243 13.44496043 -9 16 C-9.66 15.67 -10.32 15.34 -11 15 C-9.92333797 13.2458877 -8.83836661 11.49687413 -7.75 9.75 C-7.14671875 8.77546875 -6.5434375 7.8009375 -5.921875 6.796875 C-4.13945558 4.20294755 -2.29898372 2.13622381 0 0 Z " fill="#3091C1" transform="translate(37,44)"/>
<path d="M0 0 C0 0.66 0 1.32 0 2 C-3.82313405 4.7478776 -8.39442381 6.93787905 -13 8 C-15.24609375 7.578125 -15.24609375 7.578125 -17 7 C-4.73664122 0 -4.73664122 0 0 0 Z " fill="#3194C4" transform="translate(72,21)"/>
<path d="M0 0 C2.33333823 2.12121657 3.9148886 4.01594365 5 7 C4.625 9.25 4.625 9.25 4 11 C2.68 11.33 1.36 11.66 0 12 C-0.33 11.34 -0.66 10.68 -1 10 C-0.0625 7.375 -0.0625 7.375 1 5 C0.34 5 -0.32 5 -1 5 C-0.67 3.35 -0.34 1.7 0 0 Z " fill="#208DC9" transform="translate(129,81)"/>
<path d="M0 0 C3.02990095 1.71967351 5.76327296 3.29238306 8 6 C8 6.66 8 7.32 8 8 C5.03 8 2.06 8 -1 8 C-0.67 5.36 -0.34 2.72 0 0 Z " fill="#1883C4" transform="translate(120,72)"/>
<path d="M0 0 C2.475 0.99 2.475 0.99 5 2 C4.67 5.3 4.34 8.6 4 12 C2.18327099 8.36654198 0.58128086 4.73757294 -1 1 C-0.67 0.67 -0.34 0.34 0 0 Z " fill="#EBF9FB" transform="translate(131,80)"/>
<path d="M0 0 C0.66 0.33 1.32 0.66 2 1 C0.1875 3.5 0.1875 3.5 -2 6 C-2.99 6 -3.98 6 -5 6 C-5 7.32 -5 8.64 -5 10 C-6.98 10.33 -8.96 10.66 -11 11 C-7.6189962 6.86378916 -4.33409466 3.18683431 0 0 Z " fill="#CDECF4" transform="translate(69,52)"/>
<path d="M0 0 C-0.33 1.98 -0.66 3.96 -1 6 C-4.32534757 7.10844919 -6.62182575 6.84454356 -10 6 C-2.6 0 -2.6 0 0 0 Z " fill="#228EBF" transform="translate(136,144)"/>
<path d="M0 0 C2.0625 2.1875 2.0625 2.1875 4 5 C3.75 7.8125 3.75 7.8125 3 10 C2.67 9.34 2.34 8.68 2 8 C1.34 8 0.68 8 0 8 C-0.33 8.66 -0.66 9.32 -1 10 C-2.31223496 6.06329512 -1.24296256 3.87511856 0 0 Z " fill="#1A90D0" transform="translate(170,54)"/>
<path d="M0 0 C3.44008744 3.78409618 4.99567027 6.97835137 6 12 C5.54296875 14.21484375 5.54296875 14.21484375 5 16 C1.91532502 10.60540561 0.44356295 6.20988129 0 0 Z " fill="#298DC1" transform="translate(19,120)"/>
<path d="M0 0 C0 1.66666667 0 3.33333333 0 5 C-4.16138263 5.08159574 -7.9472484 4.98248524 -12 4 C-12 3.67 -12 3.34 -12 3 C-10.37604003 2.49663233 -8.75079459 1.99741024 -7.125 1.5 C-6.22007813 1.2215625 -5.31515625 0.943125 -4.3828125 0.65625 C-2 0 -2 0 0 0 Z " fill="#DDF1F5" transform="translate(116,131)"/>
<path d="M0 0 C6.67491831 -0.45510807 12.59374557 1.2327574 19 3 C19 3.33 19 3.66 19 4 C12.08104381 4.24710558 5.93852229 3.95901486 0 0 Z " fill="#4D9DC3" transform="translate(85,131)"/>
<path d="M0 0 C0.33 0.99 0.66 1.98 1 3 C1.66 3 2.32 3 3 3 C3 3.66 3 4.32 3 5 C2.34 5 1.68 5 1 5 C0.87625 5.5775 0.7525 6.155 0.625 6.75 C-0.00648824 9.02335767 -0.88858191 10.9253529 -2 13 C-2.66 13 -3.32 13 -4 13 C-3.52140759 11.39566191 -3.04210442 9.79153584 -2.5625 8.1875 C-2.29566406 7.29417969 -2.02882812 6.40085938 -1.75390625 5.48046875 C-1.19612127 3.64526945 -0.60655425 1.81966274 0 0 Z " fill="#D3EFF7" transform="translate(180,123)"/>
<path d="M0 0 C1.65 0 3.3 0 5 0 C5 0.99 5 1.98 5 3 C5.66 3 6.32 3 7 3 C7 4.32 7 5.64 7 7 C4.13302508 5.71480435 2.02392288 4.42870746 0 2 C0 1.34 0 0.68 0 0 Z " fill="#1A8AC6" transform="translate(36,153)"/>
<path d="M0 0 C0.598125 0.763125 1.19625 1.52625 1.8125 2.3125 C3.84004112 4.91335259 3.84004112 4.91335259 5.75 6.6875 C7 8 7 8 7 10 C6.34 10 5.68 10 5 10 C5 10.66 5 11.32 5 12 C4.34 12 3.68 12 3 12 C3 10.02 3 8.04 3 6 C2.34 6 1.68 6 1 6 C0.67 4.02 0.34 2.04 0 0 Z " fill="#D3F0F9" transform="translate(69,116)"/>
<path d="M0 0 C0.98120464 3.05263664 0.98120464 4.94736336 0 8 C-0.66 8 -1.32 8 -2 8 C-2 8.66 -2 9.32 -2 10 C-3.98 10.99 -3.98 10.99 -6 12 C-4.68139111 7.38486888 -2.78644563 3.90102388 0 0 Z " fill="#3E99C5" transform="translate(153,120)"/>
<path d="M0 0 C1.32 0.33 2.64 0.66 4 1 C2 4 0 7 -2 10 C-2.33 7.36 -2.66 4.72 -3 2 C-2.01 2 -1.02 2 0 2 C0 1.34 0 0.68 0 0 Z " fill="#E3F8F8" transform="translate(69,78)"/>
<path d="M0 0 C2.31 0 4.62 0 7 0 C7.33 0.99 7.66 1.98 8 3 C7.01 3.99 6.02 4.98 5 6 C3.31237149 4.3545622 1.6459651 2.68711423 0 1 C0 0.67 0 0.34 0 0 Z " fill="#1289CA" transform="translate(144,64)"/>
<path d="M0 0 C0.33 0 0.66 0 1 0 C1 1.65 1 3.3 1 5 C1.928125 4.79375 2.85625 4.5875 3.8125 4.375 C7 4 7 4 10 6 C4.74660633 8.19909502 4.74660633 8.19909502 1.1875 7.25 C-1 6 -1 6 -2 4 C-1.34 4 -0.68 4 0 4 C0 2.68 0 1.36 0 0 Z " fill="#2089C3" transform="translate(69,172)"/>
<path d="M0 0 C0.66 0.33 1.32 0.66 2 1 C1.67 1.33 1.34 1.66 1 2 C1.66 2.66 2.32 3.32 3 4 C-3.5 7.125 -3.5 7.125 -8 6 C-5.36 4.02 -2.72 2.04 0 0 Z " fill="#C6E7F2" transform="translate(153,164)"/>
<path d="M0 0 C1.26724763 3.80174289 0.4750819 5.3511132 -1 9 C-1.66 9.66 -2.32 10.32 -3 11 C-3 10.01 -3 9.02 -3 8 C-3.66 8 -4.32 8 -5 8 C-5 7.34 -5 6.68 -5 6 C-4.34 6 -3.68 6 -3 6 C-2.690625 5.195625 -2.38125 4.39125 -2.0625 3.5625 C-1 1 -1 1 0 0 Z " fill="#D9EEF4" transform="translate(57,63)"/>
<path d="M0 0 C2.97 0.495 2.97 0.495 6 1 C6 2.32 6 3.64 6 5 C6.99 5 7.98 5 9 5 C8.67 6.32 8.34 7.64 8 9 C6.66368764 7.6905332 5.33102075 6.37734515 4 5.0625 C3.2575 4.33160156 2.515 3.60070313 1.75 2.84765625 C0 1 0 1 0 0 Z " fill="#CDEFF7" transform="translate(154,35)"/>
<path d="M0 0 C5.17379682 2.24783891 8.77697025 4.16545537 12 9 C11.01 9 10.02 9 9 9 C9 8.34 9 7.68 9 7 C8.360625 6.896875 7.72125 6.79375 7.0625 6.6875 C6.381875 6.460625 5.70125 6.23375 5 6 C4.67 5.01 4.34 4.02 4 3 C1.98491642 2.26676204 1.98491642 2.26676204 0 2 C0 1.34 0 0.68 0 0 Z " fill="#2E8CC1" transform="translate(144,29)"/>
<path d="M0 0 C0.99 0.33 1.98 0.66 3 1 C2.02526874 2.66926454 1.04510211 4.33535642 0.0625 6 C-0.75541016 7.3921875 -0.75541016 7.3921875 -1.58984375 8.8125 C-2.05519531 9.534375 -2.52054688 10.25625 -3 11 C-3.33 11 -3.66 11 -4 11 C-4 9.35 -4 7.7 -4 6 C-3.34 6 -2.68 6 -2 6 C-1.855625 5.195625 -1.71125 4.39125 -1.5625 3.5625 C-1 1 -1 1 0 0 Z " fill="#D6F3FA" transform="translate(29,50)"/>
<path d="M0 0 C0.66 0 1.32 0 2 0 C2 0.66 2 1.32 2 2 C2.99 2 3.98 2 5 2 C5.33 1.34 5.66 0.68 6 0 C6 2.64 6 5.28 6 8 C1.125 3.375 1.125 3.375 0 0 Z " fill="#1684C4" transform="translate(30,145)"/>
<path d="M0 0 C0.99 0 1.98 0 3 0 C2.1875 1.9375 2.1875 1.9375 1 4 C0.01 4.33 -0.98 4.66 -2 5 C-2.33 5.99 -2.66 6.98 -3 8 C-3.66 7.01 -4.32 6.02 -5 5 C-3.33333333 3.33333333 -1.66666667 1.66666667 0 0 Z " fill="#DAF0F6" transform="translate(37,40)"/>
<path d="M0 0 C-2.22568901 2.22568901 -4.15493056 3.64520503 -7 5 C-9.1640625 4.078125 -9.1640625 4.078125 -11 3 C-9.73581754 2.30034557 -8.46334598 1.61565237 -7.1875 0.9375 C-6.47980469 0.55464844 -5.77210938 0.17179688 -5.04296875 -0.22265625 C-3 -1 -3 -1 0 0 Z " fill="#CCEAF4" transform="translate(145,173)"/>
<path d="M0 0 C0.8723412 2.99480917 1.10829766 5.63575911 1.0625 8.75 C1.05347656 9.54921875 1.04445313 10.3484375 1.03515625 11.171875 C1.01775391 12.07679687 1.01775391 12.07679687 1 13 C0.690625 12.360625 0.38125 11.72125 0.0625 11.0625 C-0.8345163 9.06389179 -0.8345163 9.06389179 -2 8 C-1.28 1.28 -1.28 1.28 0 0 Z " fill="#218BC5" transform="translate(71,80)"/>
<path d="M0 0 C0.66 0.33 1.32 0.66 2 1 C2.625 3.5625 2.625 3.5625 3 6 C3.66 6 4.32 6 5 6 C4.67 6.99 4.34 7.98 4 9 C2.02 7.35 0.04 5.7 -2 4 C-1.34 2.68 -0.68 1.36 0 0 Z " fill="#278DC8" transform="translate(134,50)"/>
<path d="M0 0 C0.33 0 0.66 0 1 0 C1.04898438 0.59167969 1.09796875 1.18335937 1.1484375 1.79296875 C1.49173392 5.42125682 1.78677553 8.48377233 3.1875 11.875 C3.455625 12.57625 3.72375 13.2775 4 14 C3.01 15.485 3.01 15.485 2 17 C-0.01167675 11.21642935 -0.22084624 6.09781001 0 0 Z " fill="#2487B5" transform="translate(66,98)"/>
<path d="M0 0 C2.3431213 0.25561323 4.67843403 0.59270772 7 1 C7.33 1.66 7.66 2.32 8 3 C4.62182575 3.84454356 2.32534757 4.10844919 -1 3 C-0.67 2.01 -0.34 1.02 0 0 Z " fill="#208CC5" transform="translate(109,67)"/>
<path d="M0 0 C2.125 0.9375 2.125 0.9375 4 2 C1.69 3.32 -0.62 4.64 -3 6 C-2.625 3.5625 -2.625 3.5625 -2 1 C-1.34 0.67 -0.68 0.34 0 0 Z " fill="#198BC7" transform="translate(144,167)"/>
<path d="M0 0 C-0.99 1.485 -0.99 1.485 -2 3 C-4.64 2.34 -7.28 1.68 -10 1 C-6.1496895 -1.56687367 -4.41430237 -0.83288724 0 0 Z " fill="#D7EFF5" transform="translate(116,65)"/>
<path d="M0 0 C1.1875 1.6875 1.1875 1.6875 2 4 C0.8125 6.6875 0.8125 6.6875 -1 9 C-1.99 9.33 -2.98 9.66 -4 10 C-3.52449439 8.51965236 -3.04448784 7.04074979 -2.5625 5.5625 C-2.29566406 4.73878906 -2.02882813 3.91507812 -1.75390625 3.06640625 C-1 1 -1 1 0 0 Z " fill="#3B98C8" transform="translate(25,61)"/>
<path d="M0 0 C0.99 0.33 1.98 0.66 3 1 C3.33 2.65 3.66 4.3 4 6 C3.01 6.33 2.02 6.66 1 7 C-1 4 -1 4 -0.625 1.8125 C-0.41875 1.214375 -0.2125 0.61625 0 0 Z " fill="#EDF8F7" transform="translate(164,40)"/>
<path d="M0 0 C3.77545388 1.09068668 6.47043472 1.9083091 9 5 C7.02 5 5.04 5 3 5 C3 4.01 3 3.02 3 2 C2.01 2 1.02 2 0 2 C0 1.34 0 0.68 0 0 Z " fill="#268AC4" transform="translate(66,146)"/>
<path d="M0 0 C1 4 1 4 0.3125 6.1875 C-1 8 -1 8 -5 9 C-3.35 6.03 -1.7 3.06 0 0 Z " fill="#CFECF7" transform="translate(131,115)"/>
<path d="M0 0 C0.33 1.32 0.66 2.64 1 4 C0.34 4 -0.32 4 -1 4 C-1.33 5.32 -1.66 6.64 -2 8 C-2.99 7.67 -3.98 7.34 -5 7 C-3.35 4.69 -1.7 2.38 0 0 Z " fill="#D7F1F8" transform="translate(165,152)"/>
<path d="M0 0 C0.66 0 1.32 0 2 0 C1.25 2.4375 1.25 2.4375 0 5 C-2.0625 5.6875 -2.0625 5.6875 -4 6 C-4.33 6.66 -4.66 7.32 -5 8 C-5 6.35 -5 4.7 -5 3 C-3.68 3.33 -2.36 3.66 -1 4 C-0.67 2.68 -0.34 1.36 0 0 Z " fill="#1D8DC7" transform="translate(54,64)"/>
<path d="M0 0 C0.66 0.33 1.32 0.66 2 1 C-0.31 3.31 -2.62 5.62 -5 8 C-5.33 7.34 -5.66 6.68 -6 6 C-5.67 5.34 -5.34 4.68 -5 4 C-4.34 4 -3.68 4 -3 4 C-3 3.01 -3 2.02 -3 1 C-2.01 0.67 -1.02 0.34 0 0 Z " fill="#2887C1" transform="translate(62,56)"/>
<path d="M0 0 C0.66 0.33 1.32 0.66 2 1 C1.34 1.66 0.68 2.32 0 3 C0 4.32 0 5.64 0 7 C-2.97 6.505 -2.97 6.505 -6 6 C-4 4 -2 2 0 0 Z " fill="#3293C8" transform="translate(48,33)"/>
<path d="M0 0 C-1.12073862 0.83905565 -2.24674547 1.67107831 -3.375 2.5 C-4.00148438 2.9640625 -4.62796875 3.428125 -5.2734375 3.90625 C-7 5 -7 5 -9 5 C-8.00233891 2.50584728 -7.31383315 1.21259665 -5.0625 -0.3125 C-3 -1 -3 -1 0 0 Z " fill="#D5F4FC" transform="translate(57,28)"/>
<path d="M0 0 C0.68707555 2.49064888 1 4.37886292 1 7 C-0.98 6.34 -2.96 5.68 -5 5 C-3.35 3.35 -1.7 1.7 0 0 Z " fill="#D6EEF6" transform="translate(79,145)"/>
<path d="M0 0 C2.64 0 5.28 0 8 0 C8.33 1.32 8.66 2.64 9 4 C6.03 3.01 3.06 2.02 0 1 C0 0.67 0 0.34 0 0 Z " fill="#C7EAF6" transform="translate(130,21)"/>
<path d="M0 0 C0.99 0.33 1.98 0.66 3 1 C2.42655063 3.86724686 2.1385485 4.8614515 0 7 C-0.99 6.67 -1.98 6.34 -3 6 C-1.68 5.34 -0.36 4.68 1 4 C0.67 2.68 0.34 1.36 0 0 Z " fill="#1186BC" transform="translate(151,160)"/>
<path d="M0 0 C1.46132217 2.92264434 2.34099246 4.92463146 3 8 C1.68 8.33 0.36 8.66 -1 9 C-0.67 6.03 -0.34 3.06 0 0 Z " fill="#D1EDF1" transform="translate(66,108)"/>
<path d="M0 0 C2.50037734 2.17424117 3.43628586 3.73045798 4 7 C2.68 7 1.36 7 0 7 C0 4.69 0 2.38 0 0 Z " fill="#C1E5F0" transform="translate(147,69)"/>
</svg>
